<?xml version="1.0" standalone="no"?>
<!DOCTYPE svg PUBLIC "-//W3C//DTD SVG 20010904//EN"
 "http://www.w3.org/TR/2001/REC-SVG-20010904/DTD/svg10.dtd">
<svg version="1.0" xmlns="http://www.w3.org/2000/svg"
 width="300.000000pt" height="207.000000pt" viewBox="0 0 300.000000 207.000000"
 preserveAspectRatio="xMidYMid meet">
<metadata>
Created by potrace 1.10, written by Peter Selinger 2001-2011
</metadata>
<g transform="translate(0.000000,207.000000) scale(0.100000,-0.100000)"
fill="#000000" stroke="none">
<path d="M1130 2021 l25 -22 -32 15 c-32 16 -68 12 -57 -6 4 -6 -2 -8 -17 -4
-24 7 -24 7 1 -8 26 -16 55 -22 32 -7 -26 16 18 22 46 6 15 -8 23 -14 18 -15
-10 0 70 -60 80 -60 4 0 -1 9 -11 20 -38 42 1 18 56 -35 32 -30 63 -55 70 -55
10 0 10 3 1 12 -9 9 -7 14 5 23 13 10 13 14 3 20 -9 5 -11 4 -6 -3 4 -7 3 -12
-3 -12 -17 0 -23 20 -7 26 8 3 27 -3 42 -13 l29 -18 -20 27 c-11 15 -25 28
-31 28 -14 0 -27 30 -14 30 6 0 10 -4 10 -10 0 -5 4 -10 10 -10 5 0 2 16 -7
35 -17 36 -37 49 -27 18 5 -17 5 -17 -9 0 -22 26 -30 20 -11 -8 25 -38 -5 -22
-35 18 -13 17 -21 24 -17 13 6 -19 7 -19 -43 2 -10 4 -12 1 -6 -8 6 -10 4 -11
-6 -4 -8 5 -23 9 -34 10 -11 1 -29 5 -40 9 -16 7 -15 4 5 -14z m84 -40 c18
-15 19 -15 13 2 -4 11 -3 16 4 12 5 -4 17 -1 25 6 8 7 14 8 12 3 -4 -13 49
-63 59 -55 4 3 2 -1 -4 -9 -18 -24 -19 -26 -5 -43 7 -8 9 -17 5 -20 -4 -3 -21
12 -37 34 -17 21 -35 39 -40 39 -6 0 -27 14 -46 31 -35 31 -22 30 14 0z"/>
<path d="M1250 1979 c0 -12 45 -69 54 -69 1 0 3 7 3 15 0 8 -3 13 -5 10 -8 -7
-33 16 -27 25 3 4 -2 13 -10 20 -12 10 -15 10 -15 -1z"/>
<path d="M1387 1993 c6 -16 5 -17 -12 -3 -17 14 -18 14 -6 -8 6 -12 10 -26 7
-31 -3 -5 4 -17 15 -27 26 -24 50 -64 28 -49 -8 6 -25 10 -38 10 -18 0 -25 -6
-26 -23 -2 -27 20 -49 31 -31 5 8 3 9 -7 4 -11 -7 -12 -6 -2 7 7 8 10 18 6 21
-3 4 -1 7 5 7 6 0 14 -5 17 -10 4 -6 10 -8 15 -5 13 8 60 -54 53 -71 -5 -13
-1 -15 15 -9 14 4 22 2 22 -5 0 -6 4 -9 10 -5 5 3 6 13 3 23 -6 14 -4 15 9 5
8 -7 17 -11 20 -8 2 3 15 -6 28 -20 13 -14 28 -25 34 -25 5 0 -2 13 -17 28
-15 16 -24 31 -21 35 4 4 1 15 -7 24 -11 15 -10 15 9 -1 12 -11 22 -14 22 -8
0 6 -4 14 -10 17 -5 3 -10 12 -10 18 1 7 10 1 20 -12 18 -21 19 -25 5 -35 -15
-10 -14 -14 5 -38 11 -15 37 -37 58 -50 20 -12 44 -31 53 -42 9 -11 26 -21 39
-23 20 -3 21 -1 10 12 -7 9 -18 14 -25 12 -6 -3 -22 11 -35 30 -15 22 -26 30
-31 22 -9 -15 -44 37 -44 68 -1 27 13 17 18 -12 4 -29 17 -46 28 -39 5 3 19
-6 31 -21 17 -22 53 -44 78 -49 3 -1 11 -5 18 -9 16 -10 15 -6 -3 29 -9 18
-11 31 -4 34 5 4 1 14 -11 25 -24 21 -25 31 -6 38 10 4 12 -1 9 -16 -4 -19 -3
-20 6 -5 11 17 5 48 -9 48 -5 0 -11 -6 -13 -12 -3 -7 -6 -2 -7 12 -2 23 -3 23
-9 -5 -5 -18 -2 -40 6 -57 13 -27 8 -62 -8 -52 -5 3 -9 10 -9 15 0 6 5 7 10 4
13 -8 13 1 -2 28 -6 12 -13 39 -14 61 -1 21 -7 43 -14 50 -8 8 -9 5 -2 -15 6
-14 7 -31 2 -38 -4 -8 -10 4 -14 33 -4 25 -11 48 -15 50 -5 3 -5 -14 0 -37 8
-47 3 -65 -6 -21 -4 16 -11 38 -16 49 -8 17 -8 16 -4 -5 6 -25 5 -25 -10 3
-21 36 -26 34 -14 -5 11 -40 11 -38 -1 -38 -5 0 -10 9 -10 20 0 21 -26 80 -35
80 -2 0 -2 -8 1 -17 4 -13 0 -11 -15 6 -25 27 -27 12 -6 -29 9 -17 12 -30 7
-30 -5 0 -18 21 -30 48 -12 26 -20 39 -17 30 6 -24 -7 -23 -23 2 -13 21 -32
27 -32 10 0 -5 5 -9 11 -7 6 1 13 -9 15 -22 l4 -24 -24 26 c-14 15 -30 35 -36
44 -10 16 -11 16 -6 -2 5 -18 4 -17 -14 4 -24 27 -27 15 -4 -17 9 -13 11 -22
4 -22 -5 0 -18 16 -27 35 -17 35 -38 50 -26 18z m91 -93 c2 6 -2 18 -10 28
-12 15 -11 16 5 3 9 -7 17 -18 17 -24 0 -14 30 -47 44 -47 6 0 5 5 -2 12 -17
17 -15 27 6 24 9 -2 17 -7 17 -12 0 -5 4 -15 9 -23 7 -11 5 -13 -7 -8 -22 8
-22 -11 0 -35 15 -17 5 -27 -11 -11 -4 4 -15 8 -23 8 -9 0 -19 7 -21 15 -5 13
-3 13 13 0 16 -13 17 -12 13 5 -2 11 -11 20 -22 20 -10 0 -25 9 -35 21 -9 11
-21 19 -26 17 -8 -2 -55 58 -55 71 0 2 19 -14 42 -35 24 -22 45 -34 46 -29z
m199 -76 c-3 -20 0 -28 14 -31 10 -3 23 -19 30 -37 7 -17 15 -35 17 -41 3 -5
-2 -4 -10 3 -9 7 -19 24 -22 38 -4 14 -11 22 -16 19 -13 -8 -27 24 -22 51 2
13 7 24 9 24 3 0 3 -12 0 -26z"/>
<path d="M951 1986 c-28 -10 -31 -14 -17 -19 26 -10 43 -8 26 3 -24 16 -5 12
43 -9 25 -11 48 -17 51 -13 4 3 -13 14 -36 23 -24 10 -35 18 -26 18 10 1 33
-7 53 -16 34 -16 34 -17 18 -37 -10 -12 -14 -18 -9 -14 4 4 17 -2 29 -13 11
-10 26 -19 31 -19 6 0 -2 11 -18 23 -20 16 -25 26 -18 31 7 4 12 3 12 -3 0 -5
16 -19 35 -31 19 -12 33 -26 29 -31 -3 -5 -11 -6 -17 -2 -6 4 -21 8 -33 9 -16
2 -21 -2 -17 -12 7 -19 2 -18 -76 10 -37 13 -89 27 -117 30 -34 3 -40 3 -19
-3 l30 -8 -35 -5 -35 -5 35 -3 c25 -3 14 -6 -35 -10 l-70 -7 83 2 c46 1 85 -2
88 -7 3 -4 12 -8 20 -8 8 0 31 -7 52 -17 20 -9 55 -22 77 -28 22 -7 48 -15 58
-20 9 -4 17 -3 17 2 0 4 -34 19 -75 32 -41 12 -75 27 -75 32 0 13 17 11 49 -6
16 -8 31 -12 34 -8 6 6 73 -32 79 -45 5 -12 125 -82 140 -82 7 1 -7 12 -32 25
-25 13 -40 24 -34 25 19 0 108 -54 95 -58 -8 -3 -6 -8 6 -18 10 -7 13 -14 7
-14 -6 0 -17 7 -24 15 -7 8 -20 15 -29 15 -9 0 -34 12 -56 25 -45 28 -63 32
-45 10 7 -8 16 -13 20 -10 4 2 16 -2 26 -10 18 -15 18 -15 -1 -9 -18 5 -17 3
4 -15 13 -12 28 -21 34 -21 6 0 2 7 -9 15 -10 8 -15 15 -11 15 13 0 67 -30
121 -68 31 -21 44 -27 32 -14 -18 21 -11 31 10 15 5 -5 2 -1 -8 7 -9 8 -29 24
-44 34 -16 11 -23 21 -16 24 7 2 9 8 6 14 -4 6 2 8 17 4 23 -7 23 -6 6 8 -11
8 -25 12 -32 10 -19 -8 -112 42 -153 82 -19 19 -40 34 -45 34 -6 0 -8 2 -5 5
8 9 58 -17 52 -26 -3 -5 0 -9 5 -9 22 0 10 27 -16 40 -17 8 -23 14 -15 17 10
4 10 8 1 19 -8 10 -8 14 0 14 10 0 14 -12 9 -26 -2 -3 8 -12 22 -19 15 -8 25
-22 25 -36 0 -25 62 -74 102 -82 30 -6 24 14 -10 36 -15 9 -25 22 -22 27 4 6
-1 7 -11 3 -12 -4 -15 -3 -10 5 5 8 1 10 -10 5 -13 -5 -15 -3 -9 7 6 10 4 12
-10 6 -15 -5 -16 -4 -6 8 10 12 18 10 56 -11 45 -25 60 -40 28 -29 -11 4 -8
-2 7 -14 14 -11 30 -18 37 -15 6 2 19 -5 29 -16 16 -18 16 -19 1 -13 -9 3 -17
10 -17 16 0 5 -5 6 -11 3 -7 -5 -2 -16 12 -31 12 -13 19 -24 14 -24 -4 0 0 -9
10 -20 22 -24 9 -27 -17 -3 -10 9 -21 14 -24 10 -5 -5 52 -46 100 -72 11 -5
22 -17 24 -25 5 -13 3 -13 -14 0 -18 14 -18 14 -5 -2 7 -10 10 -18 6 -18 -5 0
0 -9 10 -20 10 -11 13 -20 8 -20 -6 0 -16 6 -22 14 -14 17 -48 10 -48 -10 0
-8 3 -12 5 -9 3 3 12 -1 20 -8 13 -10 15 -9 10 5 -6 15 -3 15 35 -1 23 -10 51
-21 61 -25 10 -4 17 -9 14 -12 -3 -2 -26 2 -52 11 -34 12 -51 13 -66 5 -11 -6
-20 -7 -20 -3 0 9 -48 33 -64 33 -6 -1 0 -7 14 -15 14 -8 18 -14 10 -14 -17 0
-60 17 -46 18 5 1 1 10 -9 21 -22 24 -16 25 32 5 43 -18 43 -18 43 -1 0 8 -8
17 -19 21 -19 6 -60 45 -47 45 4 0 18 -7 31 -16 14 -9 25 -14 25 -10 0 13
-111 75 -125 70 -8 -4 -21 -1 -29 5 -7 6 -15 8 -18 5 -3 -3 -32 2 -64 12 -41
12 -53 19 -42 25 9 5 30 1 57 -13 57 -28 60 -18 7 20 -48 35 -57 38 -53 21 1
-6 -4 -14 -12 -17 -9 -3 -11 0 -6 8 6 10 3 10 -11 2 -10 -5 -27 -7 -38 -2 -12
4 -80 14 -151 21 l-130 14 85 6 c47 4 94 10 104 15 14 5 17 4 12 -4 -4 -7 -17
-12 -28 -12 -34 0 -15 -9 28 -14 21 -2 53 -7 71 -11 19 -4 38 -3 50 5 16 10
16 11 1 6 -10 -3 -18 -1 -18 4 0 6 -7 10 -16 10 -8 0 -13 -4 -10 -9 3 -4 -7
-6 -22 -3 l-27 6 25 8 c20 6 18 7 -10 3 -31 -3 -32 -3 -13 7 18 9 36 6 85 -10
65 -21 81 -21 58 1 -10 10 -11 9 -5 -1 6 -12 3 -12 -15 -2 -38 20 -118 38
-129 27 -5 -5 -17 -4 -31 3 -50 27 -139 50 -193 50 -33 0 -56 -4 -52 -9 3 -5
-5 -12 -17 -14 -22 -4 -22 -4 2 -6 23 -2 22 -4 -10 -16 l-35 -14 50 6 c28 3
56 10 63 16 15 12 144 3 169 -13 14 -8 7 -9 -32 -6 -39 4 -43 3 -20 -3 20 -6
-6 -8 -80 -6 -72 1 -98 -1 -75 -6 27 -6 23 -7 -20 -3 -31 2 -62 -1 -70 -7 -11
-8 -7 -9 18 -4 41 8 42 -3 1 -17 -16 -6 -28 -13 -25 -16 3 -3 -2 -11 -12 -19
-15 -13 -15 -13 8 -8 22 6 21 4 -7 -15 -18 -12 -33 -23 -33 -25 0 -7 46 9 52
19 5 8 8 7 8 -1 0 -7 -16 -20 -35 -29 -37 -17 -86 -74 -64 -74 9 0 9 -3 -1
-14 -6 -8 -10 -24 -8 -34 2 -11 -6 -30 -16 -41 -17 -19 -17 -21 -3 -15 13 5
16 2 11 -10 -3 -9 -10 -16 -15 -16 -5 0 -9 -4 -9 -9 0 -5 6 -8 13 -7 20 3 38
17 32 26 -3 5 -1 11 4 15 6 3 8 -3 6 -15 -2 -11 1 -20 6 -20 6 0 7 -5 3 -11
-4 -7 -9 -8 -13 -1 -8 13 -81 -53 -81 -73 0 -8 -14 -17 -36 -21 -20 -4 -31
-10 -25 -14 9 -5 8 -10 -3 -20 -9 -7 -13 -16 -10 -21 3 -5 -1 -9 -9 -9 -8 0
-26 -11 -40 -24 l-25 -24 21 -11 c12 -6 14 -9 5 -7 -10 3 -20 1 -23 -4 -4 -6
-15 -10 -27 -10 -14 0 -18 -5 -14 -15 3 -10 -1 -15 -12 -15 -15 0 -15 -2 -2
-10 11 -7 11 -10 2 -10 -7 0 -11 -4 -7 -9 3 -5 -5 -13 -17 -17 -22 -7 -22 -7
-3 -15 17 -7 16 -8 -7 -8 -16 -1 -28 -5 -28 -11 0 -5 -8 -10 -17 -10 -15 0
-16 -2 -3 -10 12 -8 10 -10 -8 -10 -13 0 -20 -4 -17 -10 3 -5 -3 -10 -15 -10
-12 0 -19 -4 -16 -9 3 -5 -8 -14 -24 -20 -34 -11 -56 -30 -82 -70 -21 -31 -24
-53 -3 -25 14 18 14 18 9 -3 -3 -11 -15 -24 -26 -26 -19 -6 -17 -27 3 -27 6 0
7 5 3 12 -4 7 -3 8 5 4 6 -4 9 -11 6 -16 -3 -4 1 -11 7 -14 7 -3 2 -3 -11 0
-16 4 -21 3 -17 -5 4 -6 22 -11 39 -12 27 0 29 -2 12 -9 -18 -8 -18 -9 5 -9
20 -1 22 -3 10 -11 -11 -7 1 -10 40 -11 43 -1 49 -3 30 -9 -21 -7 -22 -8 -5
-9 11 -1 29 5 40 12 11 8 29 17 39 21 17 6 17 5 5 -11 -13 -15 -12 -16 6 -9
11 5 43 12 70 16 28 4 42 8 31 9 -15 1 -16 4 -6 16 10 12 8 14 -9 10 -15 -3
-18 0 -14 13 5 14 3 14 -16 -3 -27 -23 -78 -28 -85 -9 -3 8 -10 14 -17 14 -6
0 -9 -7 -6 -15 4 -8 1 -17 -5 -21 -7 -4 -8 -3 -4 4 4 7 3 12 -3 12 -6 0 -8 6
-5 14 3 7 -2 16 -12 20 -15 6 -15 8 2 28 l19 22 -25 -17 c-27 -19 -70 -23 -70
-7 0 6 9 10 19 10 32 0 50 11 44 26 -3 8 -9 11 -14 8 -5 -3 -5 6 0 19 6 14 7
28 4 31 -4 3 -1 6 6 6 7 0 9 5 6 10 -3 6 -2 10 4 10 16 0 24 -40 11 -55 -10
-11 -7 -13 14 -9 26 4 32 -12 11 -29 -6 -5 -1 -7 12 -4 21 5 21 4 6 -19 -8
-13 -20 -24 -25 -24 -6 0 -4 8 3 18 13 15 12 16 -4 3 -32 -25 -2 -36 32 -12
24 17 31 19 31 8 0 -8 -7 -20 -15 -27 -9 -7 -13 -15 -10 -19 3 -3 17 8 30 24
l24 30 1 -25 c0 -22 1 -23 16 -8 15 15 19 15 42 -7 21 -20 28 -22 51 -12 14 6
29 15 32 20 3 5 9 8 13 7 12 -2 33 15 44 35 11 20 11 20 12 0 0 -14 11 -25 31
-32 17 -7 28 -16 25 -22 -4 -6 11 -12 36 -14 24 -3 9 -4 -32 -2 -41 1 -64 -1
-50 -3 22 -4 19 -7 -20 -17 l-45 -12 55 0 c54 1 137 -13 173 -28 10 -4 17 -3
17 3 0 6 -24 15 -52 21 -90 18 -94 20 -45 18 38 -2 48 1 53 16 5 14 13 18 35
15 16 -3 29 -1 29 4 0 4 -22 8 -49 8 -52 0 -151 27 -151 42 0 5 18 26 40 47
22 21 40 42 40 47 0 5 9 15 21 22 18 11 57 86 63 119 1 7 10 20 19 31 9 10 15
21 12 24 -3 3 19 28 49 56 34 32 50 54 44 60 -6 6 -6 12 1 16 6 4 11 4 11 1 0
-4 17 7 38 23 39 30 75 52 88 52 4 0 -1 -7 -12 -16 -18 -14 -18 -15 -1 -10 11
3 30 9 43 12 13 3 21 11 17 17 -4 6 0 8 9 4 9 -3 19 -2 24 3 12 11 137 40 175
40 17 0 38 -4 47 -8 10 -5 26 -4 40 3 l23 12 -25 5 c-14 3 -26 2 -26 -1 0 -3
-30 -6 -67 -7 -96 -2 -207 -16 -192 -24 14 -10 -21 -22 -70 -25 l-34 -2 37 19
c21 11 36 21 33 24 -2 2 -33 -12 -68 -32 -57 -32 -125 -64 -135 -64 -2 0 -4 4
-4 10 0 5 12 13 28 16 15 4 41 18 58 31 17 12 35 23 40 23 5 1 27 9 49 20 22
11 51 19 65 19 l25 -1 -25 -8 c-22 -7 -21 -8 12 -9 20 -1 49 4 65 10 15 6 62
11 103 11 42 0 66 3 56 7 -11 4 -58 7 -105 5 -69 -1 -75 0 -31 5 l55 6 -75 8
c-95 9 -177 2 -199 -17 -9 -8 -29 -18 -46 -22 -37 -9 -121 -50 -130 -64 -10
-16 8 -11 35 10 14 11 31 20 38 20 7 0 25 6 40 14 49 25 69 28 69 11 0 -10 -6
-14 -14 -10 -8 2 -48 -11 -89 -31 -41 -20 -77 -34 -81 -31 -3 4 -18 -2 -32
-12 -54 -37 -54 -32 -1 19 54 51 107 86 117 77 4 -5 45 13 181 75 35 17 48 18
68 9 31 -14 104 -14 124 0 11 7 0 8 -37 4 -55 -7 -86 1 -62 16 24 15 -24 11
-72 -6 -24 -9 -50 -13 -57 -10 -8 3 -26 -2 -39 -11 -14 -8 -27 -13 -29 -11 -3
3 -42 -10 -86 -29 -45 -19 -83 -32 -86 -30 -6 6 53 35 128 63 36 13 52 21 35
18 -16 -4 -52 -8 -80 -10 -27 -1 -62 -7 -77 -14 -16 -6 -28 -8 -28 -6 0 7 60
38 100 52 35 12 35 12 -15 7 -34 -4 -45 -2 -35 5 12 7 190 11 190 4 0 -1 -27
-7 -60 -14 -33 -6 -60 -16 -60 -21 0 -6 6 -8 14 -5 8 3 34 11 58 17 24 7 48
16 53 21 12 9 178 -3 210 -16 19 -7 19 -7 3 10 -12 13 -32 18 -75 18 -32 0
-50 3 -41 6 10 3 -49 4 -130 3 -183 -5 -191 -5 -186 -14 2 -4 -1 -10 -7 -14
-8 -4 -9 -3 -5 4 10 16 -14 14 -44 -3 -30 -17 -44 -19 -35 -5 3 6 0 10 -7 10
-8 1 -7 6 5 14 10 8 18 18 17 23 -1 4 18 17 44 27 38 17 49 18 69 7 18 -10 33
-10 63 -2 21 6 62 11 89 12 l50 1 -50 14 c-34 9 -73 12 -122 8 -64 -6 -71 -5
-69 10 4 27 22 33 109 37 152 7 236 0 290 -23 28 -12 45 -24 38 -26 -7 -2 -27
3 -44 12 -50 26 -138 34 -250 23 -56 -5 -111 -9 -122 -9 -19 1 -19 0 -1 -10
13 -7 29 -7 57 1 29 9 49 9 84 0 25 -6 49 -9 52 -5 4 3 -5 7 -18 7 -17 1 -14
3 11 8 45 8 126 -3 170 -23 19 -9 26 -14 15 -12 -84 18 -87 18 -80 6 5 -8 2
-10 -11 -6 -11 3 -26 1 -34 -4 -11 -7 -7 -10 20 -12 19 -1 -8 -5 -60 -8 l-95
-6 125 -1 c115 0 123 1 95 14 l-30 14 40 -7 c22 -3 42 -9 45 -14 3 -4 21 -11
40 -15 20 -5 29 -10 20 -13 -8 -3 -18 -9 -21 -15 -8 -11 -38 3 -38 18 0 5 -4
11 -10 13 -6 2 -11 -1 -11 -7 0 -5 -16 -8 -37 -5 -28 3 -25 1 15 -10 29 -7 63
-23 76 -35 25 -24 45 -29 26 -6 -8 9 -9 15 -2 15 6 0 14 -4 17 -10 3 -5 16
-10 28 -10 29 0 129 -49 102 -50 -11 0 -30 6 -41 14 -11 8 -38 17 -60 20 l-39
6 35 -11 c19 -6 40 -15 45 -21 7 -7 2 -8 -15 -2 -36 11 -65 11 -63 -1 2 -13
-129 -7 -137 6 -3 4 -23 -1 -45 -11 -45 -21 -45 -24 1 -11 30 8 180 -9 204
-24 22 -14 30 7 9 26 -31 27 -12 24 36 -6 23 -14 56 -25 76 -25 20 0 50 -7 65
-15 l29 -15 -27 0 c-16 0 -28 5 -28 10 0 6 -17 10 -37 9 l-38 -1 30 -8 c17 -5
48 -14 70 -20 68 -20 109 -24 100 -10 -4 7 -17 9 -31 6 -17 -5 -26 -1 -34 14
-8 15 -8 20 2 20 9 0 9 3 -2 10 -8 5 -36 10 -62 10 -26 0 -50 5 -54 11 -4 8 1
9 16 4 15 -5 20 -4 16 4 -4 6 -3 11 3 11 5 0 12 -4 15 -9 3 -5 23 -12 43 -15
50 -8 53 -8 85 0 15 3 36 3 45 -1 10 -4 25 -9 33 -10 8 -1 25 -5 38 -9 13 -4
22 -3 22 3 0 7 10 6 31 -1 16 -6 33 -8 36 -4 4 3 1 6 -7 6 -20 0 -130 52 -130
61 0 5 12 4 28 -2 15 -6 39 -12 54 -13 16 -1 37 -12 48 -24 12 -12 26 -22 32
-22 7 0 3 7 -8 15 -30 23 -3 17 43 -9 25 -15 45 -21 49 -15 3 6 15 4 30 -5 13
-9 27 -16 31 -16 4 0 -5 9 -21 19 -15 10 -36 31 -46 47 -11 15 -27 29 -37 30
-17 3 -17 2 1 -12 11 -7 17 -16 14 -19 -3 -3 -24 10 -48 29 -24 19 -47 33 -52
30 -4 -3 -20 2 -36 10 -16 8 -32 13 -35 10 -2 -3 -17 6 -32 20 -16 15 -32 26
-38 26 -5 0 -7 6 -4 14 3 7 0 19 -6 26 -7 6 5 2 26 -10 21 -13 36 -25 33 -28
-3 -3 -12 1 -21 8 -9 7 -18 11 -20 8 -3 -3 23 -20 57 -39 84 -46 87 -46 54
-16 -16 15 -38 27 -48 27 -11 0 -16 5 -13 10 4 6 1 18 -6 27 -11 13 -11 15 6
12 11 -3 20 -11 20 -18 0 -8 6 -16 13 -18 17 -6 15 12 -3 27 -16 13 -21 35 -6
25 5 -3 12 -2 14 2 3 5 -11 24 -31 43 -20 19 -29 26 -20 15 28 -37 34 -52 12
-33 -10 9 -23 17 -29 18 -5 1 -12 4 -15 7 -3 4 1 3 9 -2 10 -6 12 -4 7 4 -6 8
-12 9 -20 2 -9 -7 -16 -7 -24 1 -9 9 -12 9 -12 0 0 -11 13 -16 33 -13 5 1 6
-3 2 -9 -11 -18 -33 -10 -55 20 -12 17 -19 30 -15 30 3 0 -2 13 -11 29 -16 27
-19 28 -32 13 -7 -9 -11 -12 -8 -5 4 6 1 15 -5 19 -7 4 -9 3 -6 -3 4 -6 1 -16
-7 -22 -11 -9 -23 -5 -57 18 -24 16 -55 41 -68 54 -13 14 -29 23 -35 21 -7 -3
-32 10 -56 28 -74 57 -84 63 -77 51 13 -20 -11 -24 -49 -8 -42 18 -48 18 -93
1z m170 -27 c11 -5 17 -14 14 -20 -5 -8 6 -13 25 -11 3 0 7 -8 7 -19 2 -17 -3
-16 -38 11 -50 40 -55 65 -8 39z m-156 -73 c18 -8 36 -12 39 -10 4 2 2 -1 -2
-7 -6 -7 -25 -3 -58 10 -27 11 -41 20 -31 20 10 1 33 -5 52 -13z m200 -47 l20
-21 -42 21 c-24 12 -43 23 -43 26 0 11 47 -7 65 -26z m100 -19 c3 -5 22 -17
41 -26 19 -9 33 -19 30 -22 -5 -5 -96 45 -96 53 0 9 19 5 25 -5z m170 -20 c-2
-11 0 -20 6 -20 5 0 9 -6 9 -14 0 -8 12 -24 28 -35 15 -11 21 -21 14 -21 -7 0
-11 -4 -8 -9 11 -17 -32 1 -50 20 -21 23 -12 24 24 3 l27 -16 -28 26 c-15 14
-24 26 -20 26 4 0 -7 9 -26 21 l-34 21 24 12 c29 16 39 12 34 -14z m-620 -40
c14 -6 3 -9 -40 -9 -42 -1 -56 2 -45 9 18 12 58 12 85 0z m637 -63 c18 -12 46
-35 62 -50 16 -15 34 -27 39 -27 6 0 3 -6 -8 -13 -23 -18 -4 -32 30 -23 16 4
36 -2 61 -19 20 -14 44 -25 53 -25 15 0 103 -49 90 -50 -3 0 -37 14 -75 31
-70 32 -106 42 -156 42 -15 0 -25 4 -22 8 5 9 -9 13 -31 10 -5 -1 -2 5 7 12
17 13 17 15 -2 32 -12 10 -18 25 -16 32 3 7 -1 13 -10 13 -8 0 -12 -5 -9 -11
4 -6 -2 -5 -14 3 -12 7 -17 14 -11 16 6 2 0 12 -12 23 -32 26 -16 24 24 -4z
m-645 -24 c-27 -8 -56 -11 -65 -7 -13 6 -11 9 13 14 17 4 46 8 65 8 34 0 34
-1 -13 -15z m429 -6 c33 -4 114 -46 114 -59 0 -4 12 -14 28 -22 15 -8 23 -15
17 -15 -5 0 -21 6 -34 13 -14 8 -32 12 -40 9 -14 -4 -14 -3 -2 5 12 9 10 13
-12 23 -15 7 -27 15 -27 19 0 4 -19 10 -42 13 -24 3 -54 9 -68 12 -20 5 -19 3
5 -8 17 -8 48 -17 70 -22 32 -6 36 -9 20 -15 -18 -6 -17 -7 6 -13 27 -7 90
-67 70 -67 -6 0 -26 7 -43 16 -46 24 -141 53 -153 48 -5 -3 -1 2 9 10 21 17
41 21 32 7 -10 -15 19 -20 37 -6 16 11 14 13 -15 19 -18 4 -51 15 -73 26 l-40
20 55 -5 c30 -2 69 -5 86 -8z m-582 -102 c-18 -14 -17 -14 9 -5 38 13 54 13
41 0 -6 -6 -31 -12 -55 -14 -25 -1 -49 -5 -55 -8 -5 -4 -11 2 -11 13 -1 15 3
19 17 14 11 -3 28 -2 37 4 27 16 39 13 17 -4z m-3 -48 c-9 -9 -71 -18 -71 -11
0 2 12 10 27 18 30 15 61 10 44 -7z m44 -24 c-38 -18 -71 -35 -74 -38 -7 -8
32 -1 47 8 6 5 16 5 22 2 5 -3 23 1 40 10 37 19 40 6 2 -17 -15 -10 -34 -22
-42 -27 -8 -5 -24 -12 -35 -16 -15 -5 -16 -8 -6 -14 9 -6 4 -14 -21 -31 l-33
-24 24 27 c26 28 19 36 -11 13 -10 -7 -18 -20 -18 -29 0 -9 -8 -22 -17 -29
-10 -7 -24 -24 -32 -38 -14 -24 -13 -25 6 -7 24 21 37 22 29 1 -3 -8 -2 -12 4
-9 6 3 10 2 10 -3 0 -9 -36 -44 -60 -57 -12 -7 -12 -5 1 11 9 10 20 26 24 34
8 13 7 13 -8 1 -18 -14 -22 -7 -17 28 1 12 -1 13 -13 3 -12 -10 -14 -8 -14 13
0 14 3 25 8 25 19 0 24 -2 21 -11 -1 -5 7 -4 17 3 11 7 18 15 15 19 -2 4 0 10
6 14 5 3 10 11 10 17 0 6 -7 5 -17 -3 -15 -11 -16 -11 -6 0 6 7 10 19 7 25 -2
6 10 19 27 28 16 10 28 22 25 27 -8 13 25 51 49 55 11 2 33 11 49 20 16 8 34
12 40 9 5 -4 -21 -21 -59 -40z m215 35 c-14 -6 -46 -22 -72 -34 -26 -13 -50
-19 -52 -15 -6 9 69 53 77 45 3 -3 14 -1 24 5 10 6 25 10 33 10 8 0 4 -5 -10
-11z m24 -40 c-5 -8 0 -9 17 -4 70 20 85 14 20 -9 -40 -14 -76 -23 -79 -20 -3
3 2 5 11 5 9 0 19 5 23 12 5 8 0 9 -14 6 -12 -4 -22 -2 -22 2 0 8 18 15 43 19
5 0 5 -4 1 -11z m-89 -67 c-125 -75 -179 -104 -202 -107 -14 -1 -30 -9 -34
-16 -7 -10 -9 -9 -9 4 0 9 16 25 36 37 41 24 57 28 28 6 -30 -22 -3 -18 36 7
59 37 154 88 165 88 6 0 -3 -9 -20 -19z m25 -51 c-19 -16 -40 -29 -46 -30 -6
0 -29 -13 -52 -30 -23 -16 -44 -25 -47 -20 -6 10 79 72 88 63 4 -3 20 6 37 21
17 14 37 26 43 26 6 0 -4 -13 -23 -30z m-120 -35 c-6 -8 -20 -17 -31 -20 -18
-6 -18 -7 -1 -30 l17 -23 27 26 c15 14 31 23 34 19 7 -7 -92 -100 -99 -95 -7
5 -47 -34 -47 -45 0 -6 9 -2 20 8 26 23 26 11 0 -25 -11 -15 -17 -30 -14 -33
3 -3 2 -13 -4 -23 -6 -12 -9 -1 -7 39 1 31 8 64 15 74 8 10 2 7 -13 -6 -15
-14 -27 -20 -27 -14 0 6 7 16 15 23 8 7 13 16 10 20 -3 5 -1 11 5 15 5 3 10
11 10 17 0 6 -10 2 -23 -10 -13 -12 -26 -19 -30 -16 -12 13 -27 -7 -18 -24 6
-11 5 -25 -2 -37 -9 -18 -9 -19 6 -6 20 16 22 2 3 -24 -9 -13 -12 -37 -8 -82
4 -53 2 -63 -11 -63 -8 0 -17 -8 -20 -17 -3 -15 -6 -14 -15 7 -6 14 -11 23
-12 20 -7 -25 -7 -39 1 -34 5 3 9 -2 9 -10 0 -9 -4 -16 -8 -16 -5 0 -17 -8
-28 -17 -11 -10 -34 -28 -52 -41 -25 -18 -32 -19 -32 -7 0 8 4 15 9 15 5 0 13
10 16 21 5 14 10 18 14 10 5 -7 12 -2 20 15 6 15 9 29 7 32 -3 2 -1 14 5 25 9
15 8 18 -2 12 -9 -6 -11 -3 -6 8 3 10 3 17 -2 17 -5 0 -11 -9 -14 -20 -3 -13
-1 -18 6 -13 7 4 8 0 3 -13 -5 -10 -9 -24 -9 -31 0 -7 -4 -10 -8 -7 -4 2 -12
-3 -17 -13 -5 -9 -17 -18 -26 -19 -19 -3 -19 -2 -4 31 8 19 16 24 31 19 17 -5
19 -3 13 20 -4 15 -1 36 5 47 7 14 8 24 1 31 -7 7 -14 3 -22 -12 -9 -18 -9
-21 0 -15 8 5 11 3 8 -5 -2 -7 -14 -15 -27 -17 -21 -3 -21 -2 -7 19 22 32 20
42 -4 18 -24 -24 -37 -26 -37 -5 0 8 5 11 11 8 6 -3 8 -3 4 2 -4 4 -2 15 5 23
10 13 9 14 -10 4 -12 -7 -25 -17 -28 -22 -3 -6 -15 -10 -25 -10 -13 0 -18 -6
-15 -19 4 -21 -31 -59 -43 -47 -4 4 2 14 13 23 19 15 19 15 -5 8 -22 -7 -23
-6 -12 8 11 13 10 16 -5 19 -15 3 -14 5 5 10 12 3 20 2 16 -3 -3 -5 -1 -9 5
-9 5 0 13 5 16 10 3 6 15 10 25 10 24 0 35 17 22 33 -12 14 28 67 50 67 10 0
10 -2 0 -9 -8 -4 -12 -12 -11 -17 5 -15 24 -32 31 -28 4 2 9 0 13 -6 4 -6 11
-8 16 -5 5 4 9 1 9 -5 0 -6 4 -9 9 -6 15 9 42 -5 34 -18 -4 -6 5 -3 20 7 29
19 33 16 16 -14 -5 -11 -14 -17 -18 -14 -12 7 -21 -19 -12 -33 8 -13 26 -3 34
18 3 10 6 7 6 -8 1 -37 26 -6 28 37 1 25 -1 31 -7 21 -12 -19 -12 -13 -1 28 6
20 6 30 0 27 -12 -8 -11 2 2 28 12 21 11 21 -8 4 -11 -9 -24 -14 -28 -10 -5 5
-4 1 3 -8 6 -9 8 -20 4 -24 -4 -5 -1 -5 6 -1 6 4 12 2 12 -3 0 -6 -7 -11 -16
-11 -10 0 -14 6 -10 15 3 8 1 15 -4 15 -6 0 -10 -6 -10 -14 0 -8 -9 -14 -19
-13 -11 0 -17 5 -15 9 3 5 9 6 14 3 4 -3 10 4 13 16 5 19 3 18 -29 -6 -43 -33
-43 -26 -1 22 l32 37 -32 -22 c-17 -12 -33 -22 -35 -22 -9 0 -5 35 4 47 7 9 2
14 -16 19 -14 3 -24 10 -21 14 8 12 65 9 65 -3 0 -6 3 -7 7 -4 3 4 12 -2 20
-13 8 -12 20 -17 30 -13 13 5 15 2 9 -12 -7 -18 -6 -18 14 0 12 11 16 21 10
25 -6 4 0 16 15 30 21 20 25 21 25 6 0 -9 5 -14 10 -11 6 4 8 15 5 25 -4 11 1
20 11 24 14 5 15 4 4 -9 -21 -26 1 -16 44 18 35 29 57 42 75 46 2 1 -2 -6 -9
-14z m-133 -245 c-3 -13 -1 -18 6 -13 7 4 8 0 4 -11 -4 -10 -7 -22 -7 -27 0
-6 -4 -7 -10 -4 -11 7 -14 58 -3 68 12 12 15 7 10 -13z m-283 -82 c-5 -8 -2
-9 10 -5 10 4 15 3 11 -3 -3 -6 1 -10 9 -10 9 0 16 -5 16 -11 0 -6 7 -9 15 -5
18 7 18 4 3 -29 -6 -14 -17 -24 -24 -21 -6 2 -21 -4 -33 -15 -21 -20 -31 -13
-11 7 8 8 7 14 -3 23 -11 9 -17 8 -27 -4 -7 -8 -17 -15 -23 -15 -6 0 0 11 13
25 12 13 26 22 31 20 4 -3 10 -1 13 4 9 13 -19 7 -38 -8 -29 -24 -26 -6 4 27
28 32 48 43 34 20z"/>
<path d="M673 1449 c-6 -6 -17 -11 -24 -13 -21 -3 -69 -37 -69 -48 0 -5 13 0
29 12 16 11 44 26 62 34 17 7 27 16 22 19 -5 4 -14 2 -20 -4z"/>
<path d="M675 1256 l-29 -23 23 -8 c17 -5 29 -1 44 14 13 13 16 21 9 21 -7 0
-10 5 -7 10 11 18 -9 11 -40 -14z"/>
<path d="M885 1949 c17 -8 16 -9 -7 -6 -16 3 -28 0 -28 -4 0 -5 13 -9 29 -9
16 0 42 -5 57 -10 27 -11 50 3 38 22 -7 11 4 10 27 -3 11 -6 18 -16 16 -23 -3
-8 9 -20 29 -29 40 -20 43 -2 4 25 -14 10 -20 18 -15 19 6 0 -1 5 -15 11 -33
14 -163 21 -135 7z"/>
<path d="M1816 1784 c-9 -32 0 -88 20 -119 17 -27 17 -28 1 -16 -16 12 -17 12
-11 -5 5 -15 2 -14 -14 5 -15 19 -20 21 -25 8 -3 -8 0 -20 6 -26 18 -18 -4
-13 -25 6 -10 9 -18 11 -18 6 0 -6 7 -16 15 -23 8 -7 12 -17 8 -24 -4 -7 -1
-7 8 1 13 10 22 6 53 -26 25 -26 34 -41 26 -46 -13 -8 25 -55 44 -55 6 1 -2
12 -19 25 -16 14 -25 25 -19 25 6 0 19 -9 29 -20 10 -12 25 -18 32 -16 27 11
12 -6 -18 -18 l-30 -13 51 -21 c28 -12 48 -17 45 -12 -4 6 0 10 7 10 7 0 2 7
-10 16 -17 11 -26 13 -36 5 -7 -6 -16 -8 -19 -4 -4 3 2 13 13 20 18 12 24 13
37 1 10 -8 14 -8 10 -1 -4 6 -3 14 3 18 6 4 8 11 5 16 -4 5 -1 9 4 9 13 0 14
-17 2 -24 -13 -8 -7 -36 10 -47 25 -16 33 -10 14 11 -26 29 -13 34 14 6 13
-14 29 -22 36 -20 14 6 47 -34 39 -47 -2 -4 0 -11 6 -14 8 -5 8 -11 0 -20 -9
-10 -7 -16 7 -23 21 -11 77 6 80 25 2 8 -7 8 -32 -3 -45 -18 -54 -18 -29 2 10
8 13 13 7 9 -7 -3 -13 -1 -13 6 0 6 8 9 20 6 11 -3 18 -1 15 3 -3 5 8 8 25 8
23 -1 30 -6 30 -20 0 -11 4 -17 9 -14 5 3 11 32 13 63 5 64 51 178 75 188 9 3
22 0 30 -7 22 -18 53 -84 53 -113 0 -24 -13 -34 -23 -17 -2 4 -3 2 -1 -5 4
-18 -8 -24 -25 -11 -9 7 -12 8 -8 3 4 -5 -2 -14 -14 -20 -19 -11 -19 -13 -5
-18 10 -4 15 -3 11 3 -3 6 -1 10 4 10 6 0 11 -6 11 -14 0 -8 -9 -13 -24 -12
-15 0 -22 6 -21 16 2 8 4 19 4 23 1 5 5 6 9 3 13 -8 29 26 28 57 -1 19 2 26
11 22 10 -3 11 0 4 14 -6 10 -8 21 -5 23 2 3 -2 10 -10 17 -22 19 -88 -116
-84 -173 2 -31 7 -40 19 -38 9 1 19 -4 23 -13 3 -8 1 -15 -5 -15 -6 0 -8 -4
-4 -9 3 -5 -4 -12 -15 -16 -11 -4 -17 -11 -14 -17 5 -7 1 -9 -9 -5 -11 4 -14
2 -10 -8 3 -9 -4 -19 -18 -25 l-24 -11 25 6 c14 2 31 5 38 5 6 0 12 5 12 11 0
5 -5 7 -12 3 -7 -4 -8 -3 -4 4 10 17 33 15 33 -4 0 -8 -22 -26 -49 -40 -47
-24 -48 -24 -48 -4 0 11 -4 20 -8 20 -12 0 -51 -43 -51 -55 0 -5 -4 -11 -10
-13 -6 -2 -11 2 -11 9 0 7 -11 2 -25 -11 -30 -29 -24 -41 7 -14 l23 19 -21
-25 c-33 -39 -74 -115 -74 -137 0 -11 -7 -20 -15 -20 -20 0 -20 2 16 59 16 28
28 52 25 55 -4 5 -41 -48 -50 -72 -2 -5 -6 -7 -10 -4 -3 3 8 27 24 53 17 26
25 44 19 41 -6 -4 -3 5 7 20 18 28 18 28 -3 17 -12 -7 -23 -15 -25 -20 -4 -10
-78 -53 -78 -45 0 4 7 15 17 25 9 10 13 18 10 18 -3 0 -15 -10 -27 -22 -16
-17 -20 -18 -20 -6 0 9 11 23 25 32 26 17 50 22 41 8 -12 -20 26 -6 46 17 13
14 15 19 5 12 -9 -8 -20 -12 -22 -9 -10 10 25 31 57 34 l31 4 -19 -22 c-18
-20 -17 -20 14 2 35 26 41 36 16 26 -14 -5 -15 -4 -4 9 7 8 8 15 2 15 -5 0
-15 -7 -22 -14 -9 -11 -18 -13 -37 -5 -18 7 -30 6 -37 -1 -13 -13 -29 -13 -21
0 10 16 -7 12 -44 -11 -40 -24 -54 -18 -15 7 15 10 49 19 75 20 27 2 54 6 60
10 8 4 9 3 5 -4 -7 -12 6 -17 17 -6 9 9 -4 35 -15 28 -18 -12 -90 -16 -83 -5
3 6 13 11 21 11 9 0 14 6 12 13 -3 7 -25 13 -52 14 -31 1 -44 -2 -40 -9 4 -6
-2 -8 -17 -4 l-24 6 23 -12 c19 -9 25 -9 32 2 5 8 12 11 16 7 20 -19 7 -38
-45 -67 -31 -17 -48 -29 -39 -26 9 2 19 -2 22 -10 4 -9 -13 -23 -52 -44 -31
-16 -49 -29 -38 -30 18 0 18 -1 1 -27 l-18 -28 31 28 c16 16 33 28 36 28 4 -1
14 3 24 8 9 6 12 11 6 11 -6 0 -14 -3 -18 -7 -8 -8 -46 -15 -46 -8 0 8 62 37
89 41 24 4 24 3 9 -10 -10 -7 -18 -18 -18 -23 0 -16 -48 -56 -58 -49 -6 3 -19
-6 -30 -21 -17 -24 -22 -25 -36 -14 -12 10 -14 17 -5 27 9 11 8 14 -3 14 -8 0
-29 -16 -48 -35 -19 -19 -39 -35 -44 -35 -6 0 -27 -25 -46 -55 -58 -91 -59
-93 -60 -74 0 9 7 22 15 29 18 15 20 35 3 24 -7 -5 -9 -2 -4 7 7 15 -4 -1 -42
-59 -22 -33 -22 -34 -4 -30 26 7 47 -30 37 -63 -8 -24 -8 -24 14 -5 l21 19 -5
-42 c-3 -24 -10 -52 -16 -63 -6 -11 -9 -22 -6 -24 4 -4 57 109 62 133 2 6 8
19 14 30 19 33 13 -13 -8 -56 -10 -22 -13 -38 -7 -36 30 6 48 20 56 41 6 16
15 22 25 18 19 -8 19 5 0 29 -13 18 -15 16 -34 -20 -11 -21 -20 -32 -21 -25 0
14 18 53 29 62 11 8 41 59 41 67 0 4 -14 -8 -30 -27 -16 -19 -30 -30 -30 -23
0 6 5 15 10 18 6 3 10 11 10 17 0 7 -6 6 -15 -2 -23 -19 -18 4 6 26 11 10 27
33 34 50 7 18 24 38 37 45 22 12 23 11 6 -8 -10 -11 -18 -24 -18 -29 0 -5 -11
-21 -25 -36 -27 -29 -31 -38 -15 -38 6 0 15 10 21 23 5 12 23 30 40 39 16 9
29 23 29 30 0 8 -5 6 -11 -4 -5 -10 -15 -18 -21 -18 -20 0 21 36 42 37 19 2
20 0 9 -15 -7 -9 -29 -32 -48 -51 -20 -18 -29 -28 -19 -22 12 9 17 9 21 -1 4
-8 8 -5 12 10 4 12 11 22 15 22 4 0 17 16 29 36 12 19 17 32 11 29 -5 -3 -10
-1 -10 5 0 6 -4 8 -10 5 -6 -4 -7 1 -3 11 4 12 8 14 11 5 3 -9 8 -8 22 4 16
15 18 14 23 -5 3 -11 1 -18 -4 -14 -13 8 -11 -10 4 -25 10 -10 8 -15 -7 -26
-10 -8 -15 -19 -10 -26 4 -8 3 -10 -5 -5 -9 6 -10 0 -5 -21 9 -35 14 -42 14
-17 0 11 6 28 14 39 19 29 31 69 17 61 -8 -5 -8 0 -1 19 13 33 13 38 -1 29 -7
-4 -7 2 1 16 11 21 13 21 22 7 5 -10 6 -22 2 -29 -4 -6 -9 -23 -10 -37 -1 -14
-5 -46 -8 -71 -3 -25 -1 -52 4 -60 9 -13 10 -13 10 0 0 8 3 26 6 40 5 21 4 22
-6 10 -10 -13 -11 -12 -5 5 4 11 9 30 10 41 3 20 33 74 41 74 2 0 1 -8 -2 -17
-5 -15 -3 -15 11 2 16 19 16 19 9 -9 -5 -22 -4 -27 6 -21 9 6 10 3 1 -13 -14
-26 -14 -42 0 -22 8 12 9 9 4 -10 -5 -19 -4 -22 4 -10 14 19 14 9 0 -27 -14
-37 -21 -113 -9 -93 5 8 7 22 4 32 -2 9 0 19 6 23 5 3 10 14 10 23 0 9 9 35
20 57 17 34 19 35 15 11 -14 -70 -14 -87 0 -41 8 28 13 60 10 73 -9 37 30 99
103 167 28 25 32 26 29 10 -2 -11 -8 -30 -15 -42 -7 -12 -12 -24 -12 -26 0 -9
28 -1 44 12 9 7 16 10 16 6 0 -4 7 -2 15 5 29 24 25 3 -5 -25 -20 -19 -30 -24
-30 -14 -1 10 -4 9 -11 -4 -8 -14 -14 -15 -24 -7 -18 15 -27 -3 -16 -32 6 -12
10 -17 10 -10 1 6 8 12 16 12 8 0 15 5 15 10 0 6 5 10 10 10 7 0 7 -6 0 -20
-6 -11 -16 -19 -22 -17 -6 1 -15 -12 -20 -30 -4 -18 -13 -35 -18 -38 -13 -8
-13 11 -1 34 7 13 6 18 -5 18 -8 0 -14 -10 -14 -22 0 -13 -3 -37 -6 -54 -4
-19 -2 -31 4 -31 6 0 13 10 15 23 3 15 5 12 6 -11 0 -20 -3 -31 -9 -27 -6 4
-7 -1 -3 -11 4 -11 8 -13 11 -6 5 16 22 5 22 -14 0 -8 -4 -12 -10 -9 -14 8
-13 -21 2 -48 10 -20 10 -21 -5 -8 -10 7 -17 18 -17 23 0 17 -28 39 -32 26 -2
-6 -10 -8 -16 -4 -13 8 -14 65 -1 111 6 21 7 8 4 -40 -4 -55 -3 -66 6 -51 8
12 10 47 6 95 -3 44 -2 66 3 51 l8 -25 1 26 c1 14 14 51 29 81 26 52 26 55 6
39 -12 -9 -20 -19 -18 -22 5 -9 -19 -69 -28 -69 -5 0 -1 14 7 31 9 17 14 33
11 36 -8 8 -39 -66 -42 -97 -5 -77 -18 -150 -26 -150 -5 0 -7 -4 -4 -8 3 -5
-1 -9 -8 -9 -8 0 -12 7 -8 15 3 10 1 13 -6 8 -8 -5 -10 -29 -7 -72 4 -42 2
-63 -5 -59 -5 3 -8 24 -6 47 3 25 1 37 -5 31 -5 -5 -10 -31 -11 -57 0 -27 -4
-42 -8 -36 -4 7 -5 30 -3 51 4 25 2 39 -5 39 -6 0 -9 7 -5 16 5 14 3 14 -16 2
-12 -7 -24 -23 -27 -34 -5 -18 -11 -21 -35 -17 -16 2 -29 0 -29 -6 0 -6 -10
-15 -21 -22 -21 -11 -22 -10 -15 41 4 31 3 57 -3 64 -8 9 -6 18 5 32 14 18 15
18 8 -6 -3 -14 -3 -21 2 -17 4 4 9 28 9 54 l2 46 -19 -37 c-10 -20 -22 -34
-27 -32 -8 6 -51 -68 -51 -87 1 -7 10 4 21 23 25 44 16 3 -12 -51 -14 -29 -16
-44 -9 -70 12 -41 12 -48 1 -30 -13 20 -31 4 -32 -27 0 -15 -3 -21 -6 -14 -6
15 -33 -30 -33 -55 0 -27 50 44 51 73 2 25 2 26 6 6 3 -13 10 -25 16 -26 7 -2
28 -8 48 -15 64 -20 203 -46 232 -43 30 4 37 17 10 19 -57 3 -88 8 -177 29
-54 13 -103 21 -110 17 -6 -3 -1 5 12 19 22 25 30 44 13 33 -19 -11 -22 15 -8
68 23 87 34 97 32 28 -1 -33 2 -58 7 -55 4 3 8 0 8 -5 0 -6 -7 -11 -15 -11 -8
0 -15 -4 -15 -10 0 -5 7 -10 15 -10 8 0 15 4 15 9 0 8 61 45 64 39 28 -58 30
-60 44 -41 14 17 14 17 9 -5 -3 -12 -1 -20 4 -17 4 3 8 21 7 39 -1 18 2 38 6
44 4 7 2 12 -3 12 -6 0 -11 5 -11 10 0 6 4 10 9 10 15 0 24 -40 11 -55 -8 -9
-8 -14 0 -17 8 -2 8 -11 1 -31 -8 -19 -8 -26 -1 -22 7 4 9 -3 5 -22 l-5 -28
11 25 12 25 6 -23 c6 -22 6 -22 18 -3 10 15 9 22 -2 31 -8 6 -11 19 -8 27 6
14 8 14 14 -3 7 -17 8 -17 8 -1 1 10 5 16 10 13 9 -6 3 -55 -10 -72 -6 -7 1
-16 19 -25 15 -8 34 -22 43 -31 9 -10 21 -18 28 -18 6 0 11 -7 11 -15 0 -8 6
-15 13 -15 10 0 13 21 12 85 -1 47 -5 88 -9 92 -3 4 -6 -6 -4 -23 3 -50 -2
-84 -12 -84 -13 0 -13 47 0 55 6 3 7 17 4 30 -10 40 6 50 31 21 13 -15 26 -23
29 -17 4 5 -2 14 -11 20 -10 6 -13 11 -8 11 11 0 15 40 4 40 -4 0 -6 11 -6 25
0 16 4 22 11 18 6 -4 18 -6 28 -5 22 4 30 -12 19 -40 -10 -23 -10 -23 -10 -1
-1 28 -21 41 -21 14 0 -11 5 -23 10 -26 6 -3 10 -13 10 -21 0 -8 -4 -12 -10
-9 -6 4 -7 -1 -3 -12 6 -14 9 -13 19 12 7 17 13 37 14 45 0 13 1 13 10 0 6 -9
5 -17 -3 -22 -9 -6 -8 -10 3 -18 13 -8 12 -10 -2 -10 -23 0 -23 -6 1 -31 18
-20 19 -20 17 28 -1 26 -5 54 -9 60 -5 7 -3 21 3 30 10 16 11 16 6 -2 -6 -19
-6 -19 8 -1 9 11 22 16 31 13 8 -4 15 -2 15 3 0 5 9 12 21 15 14 5 17 10 11
18 -11 14 -10 117 2 135 4 7 3 12 -3 12 -15 0 -24 -40 -22 -98 2 -50 1 -53
-20 -50 -12 2 -24 10 -26 18 -4 13 -3 13 6 0 15 -21 21 -9 25 51 4 64 -3 111
-16 103 -5 -3 -7 -13 -4 -21 3 -8 1 -11 -4 -8 -11 7 -13 -2 -13 -55 0 -21 -2
-26 -4 -12 -2 12 -9 19 -15 16 -9 -6 -6 12 10 55 3 9 1 12 -5 8 -7 -5 -9 0 -6
13 3 11 9 23 14 26 11 7 12 24 1 24 -5 0 -15 -11 -22 -25 -7 -13 -18 -23 -23
-22 -6 1 -17 -14 -23 -33 -14 -37 -19 -128 -7 -116 4 3 12 -2 17 -13 9 -16 11
-6 12 47 l1 67 -13 -45 c-10 -39 -12 -41 -13 -15 0 29 27 103 28 77 1 -7 6
-10 11 -7 12 8 12 8 0 -34 -7 -27 -6 -36 6 -45 8 -6 16 -24 17 -40 2 -25 -2
-29 -30 -32 -19 -2 -33 1 -33 7 0 5 -5 7 -10 4 -6 -4 -10 -3 -9 2 1 4 0 19 -4
33 -16 68 -17 81 -8 75 7 -4 8 1 4 11 -4 11 -3 15 4 11 7 -5 9 1 5 15 -3 12
-1 19 5 15 5 -3 19 13 30 36 11 23 40 64 64 91 42 47 62 106 36 106 -6 0 -7 3
-4 6 4 4 14 1 24 -7 10 -8 14 -9 10 -2 -5 7 3 18 20 28 15 9 19 13 8 10 -45
-16 -54 -16 -71 -7 -16 9 -15 10 4 16 12 4 22 13 22 19 0 7 11 25 25 41 13 16
22 33 19 38 -8 13 15 38 31 32 7 -3 16 3 19 14 5 15 18 21 47 24 22 2 43 0 45
-4 3 -4 -4 -8 -14 -8 -11 0 -32 -6 -47 -14 l-27 -14 47 -10 c27 -6 58 -6 73
-1 l27 8 -30 -1 c-16 -1 -43 0 -60 1 l-30 2 39 15 c32 11 41 12 48 2 5 -9 8
-8 8 5 0 9 5 17 10 17 6 0 10 -4 10 -10 0 -5 8 -10 18 -10 14 0 15 -2 2 -10
-12 -8 -10 -10 10 -10 26 0 130 -44 130 -55 0 -9 -44 6 -51 18 -4 5 -15 7 -24
3 -14 -5 -15 -9 -5 -21 10 -13 9 -19 -5 -35 -10 -11 -25 -20 -34 -20 -14 0
-14 -2 -1 -10 11 -7 12 -10 2 -10 -18 0 -48 -36 -74 -89 -12 -24 -34 -57 -50
-75 -15 -17 -26 -36 -24 -43 3 -7 1 -15 -5 -19 -7 -4 -6 -10 0 -18 11 -13 5
-26 -11 -26 -5 0 -7 4 -4 9 3 5 -1 15 -10 22 -14 11 -18 11 -29 -4 -14 -20
-30 -23 -19 -4 4 6 3 9 -1 5 -5 -5 -10 -18 -12 -30 -1 -13 -4 -30 -5 -38 -2
-8 2 -15 7 -15 6 0 9 7 8 15 -1 8 0 22 3 30 4 13 7 12 15 -3 11 -19 3 -57 -12
-57 -5 0 -9 -7 -9 -16 0 -8 4 -13 9 -10 5 3 11 -1 15 -9 3 -8 2 -16 -2 -19 -9
-5 -34 8 -33 18 3 21 0 36 -7 36 -5 0 -4 -22 2 -50 7 -35 13 -47 21 -40 7 6
15 7 18 3 6 -5 11 23 9 47 0 3 7 16 17 28 l17 23 2 -33 c2 -25 0 -29 -8 -18
-6 9 -10 10 -10 3 0 -6 -3 -20 -6 -30 -4 -11 -3 -14 3 -6 5 6 21 16 36 22 15
6 27 14 26 18 -3 20 2 27 11 13 8 -13 11 -13 26 1 12 13 14 21 5 35 -9 17 -11
17 -12 -6 -1 -17 -3 -20 -6 -7 -2 9 -9 15 -14 12 -5 -4 -7 8 -5 27 2 22 9 33
19 33 9 0 19 4 24 8 4 5 3 8 -2 7 -32 -7 -36 1 -16 34 13 21 19 41 14 52 -5
13 -3 16 9 11 10 -3 19 0 22 9 3 8 11 14 17 14 7 0 3 -10 -9 -23 -24 -25 -29
-43 -10 -31 7 4 8 3 4 -5 -4 -6 -12 -9 -17 -6 -11 7 -12 -5 -1 -23 6 -9 12 -5
22 14 22 40 77 94 97 95 16 0 16 1 -2 9 -17 7 -17 9 -3 9 10 1 33 15 51 31 38
33 57 40 36 13 -11 -15 -10 -14 9 1 23 20 30 32 12 21 -14 -9 -12 27 3 46 21
28 51 31 75 9 23 -21 30 -36 12 -25 -14 9 -13 -8 2 -23 15 -15 3 -27 -34 -36
-30 -7 -38 10 -16 32 9 9 9 12 0 12 -7 0 -15 -8 -18 -17 -10 -31 -22 -48 -33
-46 -6 2 -11 -2 -11 -8 0 -6 -9 -9 -20 -6 -26 7 -63 -42 -49 -64 5 -7 9 -18 9
-24 0 -5 -4 -3 -10 5 -7 12 -10 11 -16 -5 -5 -11 -14 -26 -21 -33 -7 -7 -13
-23 -13 -35 0 -19 3 -18 21 11 12 17 27 32 34 32 7 0 16 7 19 16 3 8 10 12 16
9 6 -4 7 1 3 11 -5 13 -3 15 7 9 8 -5 11 -4 6 3 -3 6 -2 13 3 17 6 3 8 12 4
20 -3 8 -1 15 4 15 15 0 12 -30 -8 -94 -22 -69 -22 -66 -9 -66 6 0 10 7 10 17
0 9 8 41 17 71 13 40 24 57 42 63 17 7 27 6 33 -3 6 -10 8 -8 8 5 0 9 5 17 11
17 7 0 8 -7 4 -17 -5 -10 -9 -31 -10 -48 -1 -17 0 -20 2 -7 2 12 8 20 13 17 4
-3 6 5 3 17 -9 37 14 8 25 -32 9 -30 10 -31 11 -10 1 14 -10 42 -24 62 -20 30
-22 37 -9 42 10 4 13 2 8 -6 -5 -7 -3 -8 6 -3 8 5 11 4 7 -2 -4 -5 5 -25 18
-43 14 -19 25 -39 25 -46 0 -7 5 -16 11 -20 8 -4 9 1 4 16 -5 15 -4 20 4 16
25 -16 8 15 -34 62 -41 45 -47 62 -23 62 5 0 7 -4 4 -8 -6 -10 71 -88 79 -80
3 3 -7 17 -21 31 -24 25 -22 33 9 28 14 -2 7 17 -9 23 -19 7 -37 -2 -29 -15 4
-5 2 -9 -4 -9 -16 0 -22 18 -9 26 8 5 6 10 -8 16 -20 9 47 3 83 -7 10 -3 5 1
-12 9 -16 8 -38 15 -49 16 -13 0 -16 5 -11 18 11 28 11 34 -3 39 -7 3 -11 -1
-10 -7 2 -7 -3 -15 -11 -18 -10 -3 -12 0 -8 11 5 13 -4 17 -41 22 -78 10 -106
20 -117 40 -5 11 -14 20 -20 21 -5 0 -51 20 -102 45 -91 44 -92 44 -99 86 -3
23 -12 50 -20 60 -13 17 -16 15 -49 -21 l-35 -39 -21 26 c-29 38 -61 35 -85
-8 -13 -25 -24 -35 -36 -31 -10 2 -18 -1 -18 -7 0 -6 -7 -2 -15 10 -15 22 -52
22 -38 0 3 -6 1 -7 -5 -3 -6 4 -9 13 -5 21 3 9 -1 15 -11 15 -9 0 -16 5 -16
11 0 6 -8 9 -18 7 -10 -3 -24 2 -31 9 -10 12 -15 12 -21 3 -4 -7 -12 -10 -18
-6 -6 3 -15 -1 -20 -10 -5 -9 -13 -17 -18 -17 -5 -1 -7 -6 -5 -12 2 -5 5 -21
7 -35 1 -14 3 -27 3 -29 1 -3 6 0 12 6 8 8 8 17 0 31 -8 15 -7 21 3 25 9 4 12
0 9 -12 -3 -11 1 -18 11 -18 11 0 14 7 11 26 -5 26 -5 26 5 3 5 -13 8 -28 5
-32 -3 -5 -1 -11 5 -15 5 -3 10 -12 10 -18 -1 -7 -10 -1 -22 13 -14 17 -19 19
-15 7 4 -12 3 -16 -4 -11 -8 4 -7 0 0 -15 14 -25 23 -28 15 -3 -5 14 -4 14 4
2 6 -8 8 -18 6 -22 -3 -4 2 -8 10 -8 9 0 16 4 16 9 0 11 39 2 64 -15 14 -9 24
-10 38 -3 11 6 22 8 26 5 3 -3 0 -6 -6 -6 -14 0 -12 -22 3 -32 6 -5 5 -8 -3
-8 -7 0 -11 -4 -8 -8 2 -4 -3 -8 -12 -8 -9 0 -26 -3 -37 -7 -24 -8 -45 4 -49
27 -3 18 -53 49 -66 41 -5 -3 -18 8 -30 25 -16 23 -27 29 -44 24 -18 -4 -29 3
-50 31 -15 19 -31 33 -35 31 -4 -3 -8 1 -8 9 0 12 3 12 16 2 12 -10 14 -9 8 6
-4 10 -7 21 -7 24 0 3 -7 0 -15 -7 -12 -10 -15 -10 -16 1 -1 8 -3 24 -4 37 -1
12 2 22 6 22 5 0 9 -9 9 -21 0 -11 4 -18 10 -14 5 3 6 13 3 22 -4 11 -3 14 6
9 6 -4 11 -15 9 -24 -1 -10 4 -27 10 -40 7 -12 11 -26 8 -31 -3 -4 6 -19 21
-32 l25 -24 -21 42 c-24 49 -27 65 -6 37 8 -11 15 -14 15 -6 0 6 -8 20 -17 30
-19 20 -22 28 -25 67 -1 14 -8 25 -15 25 -7 0 -10 -7 -7 -17 5 -14 4 -15 -4
-4 -5 7 -7 21 -5 31 3 12 -3 22 -16 30 -18 9 -22 7 -31 -15 -13 -33 -15 -32
-17 13 -1 28 1 32 7 17 6 -13 9 -15 9 -5 0 8 -3 21 -8 29 -7 11 -10 10 -15 -5z
m34 -188 c0 5 -5 15 -12 22 -9 9 -9 12 0 12 10 0 36 -36 37 -52 0 -11 82 -78
95 -78 6 0 8 -5 5 -10 -5 -8 -11 -7 -20 0 -8 7 -18 9 -23 6 -5 -3 -18 4 -28
15 -11 12 -17 22 -14 24 3 1 -15 19 -40 40 -25 21 -45 40 -45 44 0 3 -4 13 -8
21 -5 8 5 -1 22 -20 17 -19 31 -30 31 -24z m270 -65 c0 -5 10 -12 23 -16 12
-4 29 -9 37 -12 8 -2 23 -4 32 -4 10 0 21 -5 24 -11 4 -6 1 -9 -7 -6 -8 3 -21
2 -30 -3 -12 -6 -25 -2 -42 11 -27 21 -42 26 -32 11 3 -6 -3 -9 -13 -8 -18 1
-26 37 -8 37 5 0 2 8 -7 18 -10 10 -17 27 -17 38 0 14 5 11 20 -14 11 -18 20
-36 20 -41z m344 61 c3 7 3 1 0 -14 -4 -17 -2 -28 5 -28 19 0 12 -17 -9 -23
-11 -3 -18 0 -17 7 1 6 -8 10 -20 10 -28 -2 -29 10 -3 29 11 8 17 18 12 23 -4
4 0 3 10 -4 13 -10 17 -10 22 0z m256 -251 c0 -13 -49 -51 -65 -51 -7 0 -15 6
-18 13 -4 10 2 13 18 9 16 -3 28 2 37 17 13 22 28 28 28 12z m-422 -108 c-9
-10 -14 -22 -12 -28 2 -5 -12 -17 -31 -26 -19 -9 -35 -12 -35 -7 0 5 -4 6 -10
3 -5 -3 -10 -1 -10 5 0 6 8 9 18 6 12 -4 26 1 37 14 18 20 18 21 -1 14 -10 -3
-6 3 11 15 37 25 54 27 33 4z m-278 -27 c-14 -13 -27 -22 -29 -20 -2 2 -12 -1
-22 -6 -9 -6 -25 -7 -34 -4 -25 10 2 34 39 34 17 0 38 5 46 10 26 17 26 11 0
-14z m473 -101 c-8 -17 -21 -32 -29 -32 -10 0 -11 4 -3 14 6 7 8 13 5 13 -4 0
1 13 10 30 24 39 37 18 17 -25z m-487 -8 c-5 -22 -36 -35 -36 -15 0 17 -21 -4
-31 -29 -5 -14 -12 -23 -15 -20 -3 3 -1 15 6 26 6 12 8 25 5 30 -3 5 6 8 20 6
17 -1 29 4 36 17 14 25 23 16 15 -15z m419 -44 c0 -23 15 -25 42 -8 24 16 26
16 14 2 -7 -9 -10 -17 -5 -17 4 0 -1 -6 -11 -14 -11 -8 -24 -12 -29 -9 -5 4
-6 1 -3 -4 4 -6 0 -13 -8 -17 -11 -4 -13 1 -8 26 4 19 2 29 -3 25 -6 -3 -11 3
-11 14 -1 12 3 19 10 16 7 -2 12 -9 12 -14z m-649 -5 c4 -7 3 -8 -4 -4 -7 4
-22 -11 -38 -36 -15 -24 -38 -56 -51 -72 -16 -20 -21 -31 -13 -36 8 -5 4 -19
-11 -45 -13 -21 -25 -33 -27 -26 -2 6 4 23 13 38 9 14 12 22 6 19 -16 -10 -13
6 5 32 9 13 14 25 11 28 -8 8 -40 -49 -42 -75 -3 -46 -5 -51 -15 -51 -6 0 -6
9 1 26 9 25 8 26 -8 13 -35 -29 43 97 93 148 51 54 67 62 80 41z m684 -98
c-10 -23 -10 -23 -6 -3 2 13 0 26 -5 29 -6 3 -5 12 3 22 12 14 13 13 16 -4 2
-11 -2 -31 -8 -44z m-416 -116 c-5 -19 -3 -25 4 -20 8 5 10 -2 6 -24 -7 -34
14 -44 23 -10 3 11 9 20 14 20 5 0 6 7 3 15 -4 8 -1 15 6 15 6 0 8 6 5 13 -4
6 1 3 9 -7 17 -21 21 -41 7 -32 -5 3 -11 -1 -15 -9 -3 -8 -2 -15 3 -15 9 0 7
-49 -4 -95 -13 -57 -13 -57 -41 -39 -21 14 -25 24 -23 53 2 20 0 59 -5 88 -4
29 -5 57 -1 63 11 18 16 11 9 -16z"/>
<path d="M2083 719 c-10 -40 -10 -56 -2 -64 9 -7 10 -6 5 3 -5 7 -3 26 4 42 6
15 10 38 8 51 -2 14 -7 3 -15 -32z"/>
<path d="M1623 1728 c3 -10 2 -20 -4 -24 -6 -4 -4 -14 5 -29 12 -18 13 -25 3
-29 -6 -3 0 -4 16 -2 15 2 30 -1 33 -6 3 -4 9 -6 13 -4 4 3 21 -8 36 -24 16
-17 24 -30 18 -30 -5 0 -18 9 -28 20 -10 12 -25 18 -32 15 -8 -2 -12 -1 -9 3
2 4 -4 8 -14 8 -32 0 50 -61 82 -62 19 0 41 -14 74 -49 42 -45 44 -50 28 -62
-21 -15 -38 -17 -29 -3 3 6 -1 7 -10 4 -9 -4 -14 -12 -12 -19 3 -7 -6 -12 -25
-12 -16 0 -33 -4 -36 -9 -9 -13 -50 -15 -92 -4 -20 5 -54 5 -79 0 -24 -4 -57
-4 -74 1 -17 5 -33 7 -35 4 -2 -2 15 -9 37 -15 23 -6 39 -15 36 -19 -7 -12
-62 -19 -77 -9 -8 5 0 8 21 8 19 0 32 3 28 6 -10 11 -144 6 -164 -5 -10 -6
-12 -11 -5 -11 6 0 11 -5 10 -12 -2 -7 11 -15 27 -19 l30 -8 -30 1 c-16 1 -43
-4 -58 -11 -16 -6 -38 -11 -50 -11 -16 0 -18 -3 -8 -9 15 -10 8 -15 -32 -25
-19 -4 -26 -3 -22 4 3 5 13 10 22 10 9 0 14 3 10 6 -9 10 -59 -5 -52 -16 3 -5
1 -11 -5 -15 -24 -15 -7 -24 20 -10 35 18 113 27 103 12 -3 -5 0 -7 8 -5 8 3
13 11 11 17 -3 13 15 15 23 1 6 -9 -42 -38 -73 -45 -10 -2 -36 -10 -59 -18
-22 -9 -44 -13 -47 -10 -3 3 -14 -5 -24 -17 -11 -14 -21 -19 -25 -13 -10 16
25 42 65 47 35 4 104 34 96 41 -2 2 -24 -3 -48 -11 -25 -9 -58 -18 -74 -20
l-29 -3 24 26 c13 14 19 24 14 20 -6 -3 -17 -2 -24 3 -15 9 -16 9 94 35 72 18
127 40 70 30 l-30 -6 25 16 c24 15 21 16 -65 11 -78 -3 -86 -2 -60 8 l30 13
-28 5 c-32 6 -147 -20 -147 -33 0 -11 3 -11 36 1 15 6 36 8 47 4 34 -11 -2
-23 -58 -19 -57 4 -109 -15 -169 -64 -21 -17 -42 -28 -47 -25 -5 3 -9 -1 -10
-8 0 -7 -2 -23 -5 -36 -3 -15 0 -21 7 -17 6 4 8 14 5 24 -5 13 -4 13 8 -2 13
-16 14 -16 30 8 9 14 21 25 27 25 13 0 -2 -27 -36 -64 -28 -30 -27 -49 2 -24
10 9 23 14 29 11 6 -2 14 6 17 18 4 14 11 20 21 16 8 -3 16 -1 19 6 6 19 55
16 52 -3 -4 -25 17 -61 29 -51 6 5 14 10 19 10 14 2 8 15 -10 22 -10 4 -12 8
-5 8 7 1 10 6 7 11 -4 6 -11 8 -16 4 -6 -3 -9 11 -8 35 3 39 11 51 24 32 3 -5
1 -12 -4 -16 -15 -9 0 -37 16 -31 11 5 13 1 7 -16 -6 -20 -5 -21 9 -9 9 7 15
17 12 21 -5 8 55 44 61 37 2 -2 -12 -18 -31 -37 -32 -31 -33 -34 -17 -46 12
-10 14 -16 5 -21 -6 -5 -11 -16 -10 -25 1 -9 -2 -17 -8 -17 -15 -1 -13 22 3
42 21 24 -1 21 -24 -4 -13 -14 -25 -18 -44 -14 -20 5 -22 4 -13 -6 8 -8 9 -18
3 -30 -14 -25 14 -32 35 -9 10 11 22 17 27 14 6 -4 5 -10 -3 -15 -7 -4 -11
-10 -8 -13 3 -3 21 8 40 24 34 29 59 38 59 21 0 -11 -22 -29 -35 -29 -5 0 -12
-6 -15 -14 -3 -7 -12 -13 -20 -13 -8 0 -16 -9 -18 -20 -3 -20 -3 -20 13 -1 18
23 20 14 3 -17 -10 -20 -10 -21 5 -8 20 16 22 3 3 -21 -14 -18 -32 -25 -21 -9
3 5 -2 16 -10 24 -8 9 -12 22 -9 31 9 23 -5 39 -22 25 -8 -6 -14 -8 -15 -3 0
5 -4 0 -8 -10 -8 -20 -45 -33 -38 -13 3 7 10 11 16 9 8 -1 9 2 5 10 -5 7 -9
19 -9 25 0 17 -11 16 -40 -3 -14 -9 -29 -13 -33 -9 -4 4 -1 10 6 12 6 3 10 9
6 14 -5 9 48 61 55 53 3 -2 -6 -16 -20 -30 l-24 -27 25 13 c14 8 27 12 28 11
2 -2 7 1 10 5 4 4 0 3 -8 -1 -10 -5 -8 -1 4 13 17 20 15 27 -8 23 -5 -1 -6 5
-3 13 9 23 -12 31 -27 10 -7 -9 -18 -14 -24 -10 -7 4 -10 -1 -7 -14 2 -11 0
-22 -5 -25 -16 -10 -52 -89 -42 -93 6 -2 9 -9 6 -17 -3 -7 -1 -16 5 -20 10 -6
15 6 12 31 -1 7 12 17 29 22 16 6 30 16 30 21 0 6 5 11 10 11 7 0 7 -7 0 -21
-6 -11 -9 -25 -7 -32 2 -7 0 -20 -5 -31 -7 -13 -7 -16 1 -12 23 14 10 -14 -33
-72 -60 -80 -79 -119 -61 -119 7 0 11 6 8 13 -2 6 1 15 8 20 8 4 10 3 5 -4 -4
-7 -2 -12 3 -12 6 0 11 11 11 24 0 14 5 28 10 31 6 4 10 -7 10 -25 0 -18 -6
-33 -15 -36 -8 -4 -15 -12 -15 -19 0 -6 -9 -23 -21 -36 -19 -22 -21 -22 -17
-4 1 11 8 23 13 27 6 5 4 8 -5 8 -8 0 -26 -18 -39 -40 -17 -28 -27 -36 -33
-27 -11 17 -10 39 1 32 6 -3 6 6 1 25 -5 19 -5 28 1 25 5 -4 9 -13 9 -21 0
-31 20 -11 46 45 15 33 31 58 35 56 4 -3 12 9 19 25 7 16 16 28 20 25 8 -5 20
27 24 63 2 25 1 26 -25 11 -11 -5 -17 -14 -14 -20 4 -5 12 -6 18 -2 18 11 -22
-49 -46 -71 -12 -10 -22 -23 -22 -30 0 -6 -3 -11 -7 -11 -3 0 -16 -12 -28 -28
-26 -33 -44 -26 -36 14 3 16 1 29 -4 29 -6 0 -10 -4 -10 -10 0 -5 -5 -10 -10
-10 -6 0 -3 11 7 24 10 13 19 20 21 15 7 -17 22 -9 22 11 0 11 5 20 11 20 5 0
8 3 6 8 -2 4 2 21 9 37 9 21 13 24 14 11 0 -15 3 -16 15 -6 14 11 13 14 -1 25
-10 7 -14 19 -10 31 3 10 6 24 6 29 1 6 15 26 33 45 l32 34 -35 -26 c-19 -14
-35 -32 -35 -40 0 -8 -8 -27 -18 -41 -10 -15 -15 -33 -11 -39 4 -6 1 -16 -7
-22 -8 -6 -27 -28 -42 -49 -28 -37 -50 -41 -46 -9 2 29 -1 37 -10 23 -5 -8 -8
2 -6 29 1 24 10 49 20 58 16 16 16 15 2 -13 -16 -31 -6 -72 14 -60 5 4 9 2 9
-4 0 -5 -4 -13 -10 -16 -5 -3 -10 -11 -10 -17 0 -7 6 -6 15 2 8 7 15 18 15 26
0 7 6 19 13 26 8 7 14 27 14 45 0 25 -4 30 -19 28 -25 -5 -23 9 10 47 30 36
43 90 16 67 -8 -6 -12 -14 -10 -17 9 -8 -23 -60 -51 -82 -24 -19 -28 -19 -36
-4 -6 10 -5 20 3 27 10 9 12 8 7 -4 -3 -10 1 -16 9 -16 9 0 13 6 10 14 -3 8
-2 12 3 8 5 -3 20 9 32 27 l23 33 -23 -20 c-13 -11 -31 -19 -42 -17 -13 2 -25
-11 -45 -50 -17 -33 -22 -54 -15 -56 6 -2 11 -15 11 -28 0 -16 4 -23 11 -18 8
5 10 -3 7 -24 -3 -23 1 -34 19 -47 13 -10 23 -23 23 -29 1 -6 9 -29 20 -51 11
-25 16 -51 13 -68 -4 -22 1 -35 23 -58 15 -16 34 -27 41 -25 7 3 13 1 13 -4 0
-6 6 -10 14 -10 8 0 18 -5 22 -12 5 -8 2 -9 -9 -5 -10 3 -17 4 -17 0 0 -12 52
-53 67 -53 9 0 26 -12 40 -26 24 -26 53 -29 61 -5 3 9 -1 11 -16 7 -17 -6 -24
0 -37 24 -14 27 -18 30 -33 18 -11 -9 -14 -9 -8 -1 5 9 2 11 -7 7 -8 -3 -18
-1 -22 5 -3 6 -1 11 6 11 6 0 -1 10 -17 22 -16 12 -41 32 -56 46 -32 29 -27
56 8 48 14 -4 24 -2 24 4 0 17 18 11 23 -7 3 -13 8 -9 17 15 9 25 15 30 21 20
6 -9 9 -7 9 8 0 12 11 38 25 58 17 25 23 45 19 61 -4 17 2 31 25 56 17 17 31
37 31 43 0 6 -5 3 -11 -7 -10 -17 -29 -15 -29 4 0 6 4 7 10 4 5 -3 7 0 5 7 -3
8 1 22 9 33 9 11 16 15 16 8 0 -6 -4 -15 -10 -18 -14 -8 -13 -26 1 -22 15 3
31 -51 24 -80 -3 -13 -1 -23 5 -23 6 0 6 -7 -2 -19 -7 -11 -15 -18 -19 -15 -4
2 -10 -6 -12 -18 l-4 -23 -2 23 c0 13 4 32 9 43 14 24 1 49 -12 25 -5 -9 -7
-20 -3 -25 3 -5 1 -13 -5 -16 -6 -4 -8 -15 -5 -24 3 -11 -3 -28 -15 -42 l-21
-24 11 24 c10 19 9 22 -1 19 -8 -3 -16 -18 -20 -35 -8 -38 -18 -55 -30 -48 -5
4 -9 -3 -9 -14 0 -11 9 -22 20 -26 20 -6 19 -25 -1 -25 -6 0 -7 5 -4 10 3 6 2
10 -4 10 -22 0 -19 -18 5 -29 31 -14 37 -14 29 -1 -3 5 1 10 10 10 9 0 14 -4
11 -9 -6 -9 48 -36 74 -36 14 -1 30 13 30 26 0 4 -20 12 -44 18 -76 19 -96 29
-90 46 3 8 12 15 20 15 8 0 14 6 14 14 0 17 22 26 66 26 19 0 34 4 34 9 0 6
12 3 28 -5 15 -7 43 -14 62 -15 19 0 51 -7 70 -14 32 -12 33 -14 10 -15 -17
-2 -19 -4 -8 -7 9 -2 27 1 39 7 15 9 24 9 32 1 8 -8 6 -11 -9 -13 -10 0 4 -4
31 -7 62 -7 113 -2 94 10 -8 5 -31 8 -52 7 -41 -1 -53 5 -42 22 5 8 11 5 21
-7 8 -11 13 -13 14 -5 0 19 -38 52 -59 52 -11 0 -23 5 -26 10 -3 6 -31 10 -61
10 -37 0 -54 4 -54 13 0 8 13 12 41 10 23 -1 44 -4 47 -7 3 -3 11 2 19 12 12
16 13 15 6 -3 -6 -18 -5 -18 10 -6 10 8 17 9 17 3 0 -6 19 -10 45 -9 25 1 47
-2 49 -8 3 -5 5 -1 5 9 1 21 13 15 18 -9 4 -22 11 -49 13 -55 1 -3 2 -9 1 -13
-1 -5 3 -6 9 -2 6 3 7 12 4 18 -5 9 -4 9 5 1 10 -9 9 -17 -3 -37 -18 -27 -72
-41 -116 -30 -17 4 -22 2 -15 -4 6 -6 28 -13 50 -16 30 -5 36 -4 25 4 -12 8
-9 9 10 5 14 -3 31 -6 38 -6 7 0 11 -4 8 -8 -3 -5 -28 -8 -56 -8 -27 1 -50 -2
-50 -5 0 -11 74 -16 99 -7 29 10 37 1 46 -54 4 -21 11 -38 15 -38 5 0 12 -17
16 -37 3 -21 15 -53 25 -71 10 -18 19 -39 19 -47 0 -8 9 -19 19 -25 33 -17 30
11 -6 61 -18 26 -33 57 -33 71 0 13 -6 30 -12 37 -10 11 -10 13 0 7 6 -4 12
-3 12 3 0 6 7 8 15 5 10 -4 15 0 15 12 0 16 -2 17 -11 4 -8 -11 -9 -8 -4 13 4
19 2 26 -5 22 -5 -3 -10 -14 -10 -25 0 -10 -7 -20 -15 -24 -19 -7 -19 -4 5 39
22 40 25 49 10 40 -15 -9 -12 9 6 31 13 16 15 16 10 2 -8 -27 2 -21 17 10 23
43 30 72 18 72 -6 0 -11 -9 -11 -21 0 -11 -4 -18 -10 -14 -5 3 -7 12 -3 20 3
8 1 15 -5 15 -12 0 -11 32 2 41 11 9 -3 31 -15 23 -5 -3 -7 -9 -4 -14 3 -5 -8
-19 -25 -32 -27 -20 -29 -23 -13 -29 10 -4 24 -2 31 3 17 14 15 -4 -3 -28 -8
-11 -15 -14 -15 -6 0 14 -30 17 -30 3 0 -5 7 -12 17 -15 14 -6 14 -8 -3 -22
-10 -9 -13 -13 -7 -9 9 4 11 1 6 -10 -8 -23 -25 3 -17 28 3 9 0 17 -7 17 -9 0
-9 3 1 15 6 8 9 19 5 25 -8 13 23 63 35 55 9 -6 8 21 -2 30 -6 7 36 89 60 117
17 21 34 14 25 -10 -3 -9 3 -6 12 8 35 50 91 102 128 122 22 10 37 22 34 25
-3 2 -14 0 -25 -6 -26 -14 -43 -14 -19 0 9 6 14 15 11 21 -5 7 -2 9 8 6 11 -5
15 0 14 15 -1 17 5 22 25 23 14 1 34 6 45 13 16 10 11 11 -26 5 l-45 -6 23 25
c18 18 20 26 10 30 -7 2 -2 2 12 0 20 -3 22 -2 10 8 -12 9 -11 10 8 6 12 -3
22 -1 22 5 0 12 -72 1 -81 -13 -3 -5 -57 -8 -121 -7 -85 2 -120 -1 -132 -11
-12 -10 -19 -11 -30 -2 -10 9 -16 8 -26 -4 -10 -12 -9 -15 6 -16 11 -1 24 0
29 1 6 2 25 4 44 6 18 1 45 8 58 15 21 12 26 11 34 -3 7 -13 15 -15 42 -7 36
10 124 12 114 3 -3 -4 -28 -8 -54 -9 -26 -2 -63 -6 -82 -10 -24 -6 -32 -4 -27
4 4 6 2 11 -3 11 -6 0 -11 -4 -11 -9 0 -6 -18 -20 -40 -32 -31 -18 -37 -25
-26 -31 8 -5 26 -3 41 4 20 9 34 9 60 -1 26 -9 39 -9 52 -1 16 10 15 10 -4 5
-12 -3 -36 1 -52 10 -28 14 -33 14 -56 -1 -14 -9 -28 -14 -31 -11 -10 9 39 30
79 33 22 2 46 9 54 15 10 9 17 9 25 1 7 -7 23 -12 38 -12 22 -1 23 -2 7 -11
-9 -5 -23 -7 -30 -3 -9 6 -9 5 0 -7 11 -13 9 -18 -10 -27 -43 -21 -64 -23 -71
-7 -3 8 -15 15 -26 15 -12 0 -19 -4 -16 -9 4 -5 0 -12 -6 -15 -7 -3 1 -3 17 0
25 5 22 1 -22 -25 -51 -30 -73 -51 -54 -51 5 0 13 5 16 10 10 16 85 52 98 47
7 -2 25 2 40 10 16 8 31 12 34 9 8 -7 -76 -48 -87 -41 -10 6 -90 -31 -90 -41
0 -3 7 -3 15 0 14 5 14 3 2 -14 -7 -11 -39 -46 -70 -79 -31 -34 -52 -63 -46
-67 12 -7 40 27 32 39 -2 4 -1 6 4 5 9 -3 99 89 118 120 12 20 41 27 49 13 4
-5 -5 -26 -18 -46 -13 -19 -27 -31 -30 -26 -4 5 6 23 20 40 14 17 20 28 12 25
-23 -10 -153 -167 -154 -186 -2 -33 -22 -45 -39 -22 -8 10 -13 24 -11 29 2 6
-1 18 -6 28 -16 31 -18 60 -5 76 10 12 9 13 -3 6 -8 -5 -4 4 10 21 21 26 27
28 36 16 9 -13 12 -13 20 -1 5 8 9 21 9 29 0 8 8 15 17 15 23 0 32 11 14 18
-9 4 -23 -4 -35 -18 -21 -27 -32 -32 -29 -12 2 6 16 22 32 35 31 23 52 29 41
12 -8 -13 5 -12 30 3 26 16 32 40 8 33 -10 -3 -24 -2 -32 3 -9 6 -24 5 -38 -2
-24 -10 -31 -27 -12 -27 5 0 7 -5 4 -11 -4 -6 -10 -8 -13 -5 -5 6 -38 -35 -35
-44 3 -11 -18 -40 -29 -40 -6 0 -4 8 5 18 10 10 14 22 11 25 -4 4 -1 13 6 22
7 9 10 18 8 21 -9 8 -70 -30 -82 -51 -28 -52 -58 -96 -62 -92 -3 3 6 23 20 46
31 49 32 61 6 61 -11 0 -23 0 -27 1 -4 0 -9 -5 -12 -12 -2 -7 2 -10 11 -6 21
8 16 -49 -6 -71 -21 -22 -21 0 0 33 18 28 8 34 -12 8 -12 -17 -13 -16 -9 5 2
13 0 20 -6 16 -6 -3 -8 -9 -5 -12 3 -3 -1 -14 -11 -24 -9 -10 -13 -18 -8 -18
4 0 3 -6 -2 -12 -14 -18 -23 -59 -12 -52 12 7 11 -7 -1 -26 -7 -12 -11 -10
-19 10 -9 24 -13 22 -15 -10 -1 -8 -10 -16 -21 -19 -17 -3 -18 -1 -6 13 11 13
11 19 1 31 -7 8 -9 15 -6 15 4 0 2 9 -4 19 -6 13 -18 18 -31 16 -17 -4 -19 -2
-9 11 9 10 16 11 25 4 13 -11 40 11 28 23 -3 4 2 16 12 27 10 11 16 20 14 21
-2 0 -12 2 -21 4 -10 2 -22 -3 -26 -11 -9 -17 -55 -28 -50 -13 2 6 6 9 10 7 3
-2 14 5 25 14 12 11 29 16 46 12 17 -3 26 0 25 7 -2 6 7 17 19 26 21 14 22 14
18 -7 -3 -14 0 -20 8 -17 7 3 11 10 9 16 -2 13 14 15 22 2 3 -4 -4 -17 -16
-27 -16 -14 -22 -16 -25 -6 -6 16 -33 -3 -33 -23 0 -8 -5 -15 -12 -17 -14 -5
-20 -38 -7 -38 5 0 9 6 9 13 0 8 3 7 10 -3 5 -9 5 -19 -1 -26 -6 -8 -6 -14 -1
-18 13 -8 23 19 16 39 -4 8 1 17 10 21 9 3 16 12 16 19 0 7 16 27 35 43 21 19
30 33 22 36 -7 2 -1 4 12 3 16 -1 25 4 26 16 2 9 1 17 -2 17 -10 0 -48 -24
-55 -34 -5 -8 -8 -7 -8 1 0 16 57 46 72 37 6 -4 8 -3 5 2 -3 6 4 11 15 11 19
2 19 1 3 -17 -9 -10 -12 -21 -7 -24 5 -3 15 1 22 9 7 8 17 15 22 15 5 0 -5
-14 -22 -31 -17 -17 -28 -34 -25 -38 4 -3 15 5 27 19 11 14 16 18 12 10 -4 -9
-3 -12 2 -7 5 5 9 14 9 19 0 6 6 13 14 16 8 3 11 0 7 -7 -5 -7 1 -11 14 -11
12 0 18 4 15 11 -4 6 2 13 14 16 11 3 18 9 15 14 -3 5 -2 8 3 7 4 -1 27 9 50
23 l42 25 -34 1 c-19 1 -35 -3 -35 -8 0 -4 7 -5 17 -2 11 4 14 3 9 -5 -4 -7
-17 -12 -30 -12 -13 0 -31 -9 -41 -20 -21 -23 -50 -26 -58 -6 -3 7 4 21 14 30
11 9 18 20 15 25 -6 9 -76 -10 -76 -21 0 -9 -64 -48 -79 -48 -7 0 -9 5 -5 11
4 8 0 9 -15 4 -38 -12 -47 6 -15 32 l29 24 -27 -12 c-16 -7 -28 -17 -28 -22 0
-6 -3 -8 -6 -4 -4 3 -20 -1 -36 -9 -39 -20 -48 -11 -11 11 15 9 20 14 11 11
-10 -3 -18 -1 -18 3 0 14 32 22 45 11 8 -7 19 -4 35 10 13 12 30 18 37 15 8
-2 12 -1 9 3 -3 4 11 8 30 8 19 0 40 6 46 13 14 14 3 13 -47 -4 -16 -5 -15 -3
3 7 12 8 19 17 16 21 -4 4 -2 7 5 7 7 0 9 4 6 10 -3 6 1 7 12 4 10 -3 8 1 -6
9 l-23 14 32 7 c38 7 113 -10 105 -24 -4 -6 1 -10 11 -10 22 0 -21 -35 -61
-50 -40 -15 -43 -4 -4 19 33 20 48 51 25 51 -6 0 -28 -8 -49 -19 -33 -17 -35
-19 -15 -24 21 -6 21 -7 3 -27 -10 -11 -28 -20 -39 -20 -28 0 -50 -15 -42 -29
4 -7 1 -9 -7 -5 -8 3 -18 1 -21 -4 -3 -5 3 -12 14 -15 11 -3 20 -1 20 4 0 5 9
9 21 9 11 0 18 4 14 10 -3 5 -13 6 -22 3 -11 -4 -14 -3 -9 6 4 7 13 10 19 8
23 -8 137 30 137 45 0 5 5 8 11 8 5 0 7 -4 4 -10 -10 -15 29 -12 51 5 10 8 26
14 34 15 13 0 13 -1 0 -10 -11 -8 -7 -9 15 -4 17 4 33 11 36 16 3 5 16 4 30
-1 21 -9 22 -10 4 -11 -11 -1 -15 -3 -10 -6 6 -2 32 4 59 15 l50 18 -75 -1
c-41 0 -77 -4 -80 -9 -3 -4 -16 -3 -30 2 -13 5 -18 10 -10 10 8 1 12 3 9 6 -3
3 -13 2 -22 -1 -12 -5 -14 -9 -6 -14 8 -5 7 -9 -5 -13 -9 -4 -13 -3 -10 3 3 6
0 10 -7 10 -8 1 -5 7 7 16 14 10 32 13 60 9 107 -17 110 -17 95 -6 -8 6 -28
11 -45 12 l-30 1 30 7 c17 4 73 5 125 3 80 -4 98 -2 109 12 14 17 7 21 -26 17
-7 -1 -30 7 -52 19 -22 11 -46 20 -53 20 -7 0 10 -12 37 -25 28 -14 58 -23 68
-21 9 2 15 0 11 -5 -8 -13 -38 -11 -70 6 -16 8 -45 17 -64 20 -19 3 -57 10
-85 16 -32 7 -59 7 -75 1 -19 -7 -5 -11 69 -16 51 -4 109 -14 129 -21 43 -16
17 -19 -43 -5 -22 4 -70 11 -107 14 -68 5 -92 -5 -86 -35 2 -7 -6 -14 -17 -16
-16 -3 -17 -2 -5 6 11 8 12 11 2 11 -7 0 -10 5 -6 11 5 8 -1 10 -20 7 -14 -3
-26 -1 -26 3 0 5 13 9 29 9 19 0 34 8 43 23 16 22 51 26 153 17 30 -3 74 9
127 36 17 7 30 9 33 3 4 -5 12 -9 18 -9 7 0 6 4 -3 11 -16 11 -16 12 38 -7 9
-3 4 3 -13 15 -16 11 -24 21 -16 21 10 0 5 10 -13 29 -27 28 -28 59 -3 45 7
-4 -4 7 -23 24 -21 18 -38 26 -41 20 -9 -13 -32 0 -27 16 2 6 -18 34 -46 61
-27 28 -44 43 -37 34 20 -28 -18 -34 -43 -7 l-21 22 21 -17 c24 -20 41 -23 25
-4 -6 8 -9 16 -6 19 3 3 -5 13 -17 24 -19 17 -21 17 -15 2z m-203 -358 c-13
-8 -13 -10 2 -10 9 0 20 -4 23 -10 4 -6 -7 -10 -24 -10 -20 0 -31 5 -31 14 0
8 -12 17 -27 19 -16 2 -7 5 22 5 36 1 46 -1 35 -8z m-190 -20 c-8 -5 -28 -10
-45 -11 -16 0 -39 -5 -50 -10 -20 -9 3 -8 95 6 28 4 26 2 -10 -8 -65 -20 -121
-28 -115 -16 4 5 -1 9 -10 9 -9 0 -13 -5 -10 -10 4 -6 3 -10 -2 -9 -25 4 -35
-2 -25 -14 8 -10 5 -16 -11 -27 -20 -12 -21 -12 -9 3 10 12 10 17 1 23 -9 5
-7 11 7 22 18 13 18 14 -6 7 -14 -4 -27 -11 -30 -15 -3 -4 -20 -6 -37 -5 -20
2 -37 -3 -45 -13 -11 -13 -10 -15 10 -10 12 4 20 2 16 -3 -3 -5 -1 -9 5 -9 5
0 13 5 16 10 3 6 14 10 23 9 11 0 12 -2 4 -6 -6 -2 -10 -9 -7 -14 4 -5 -1 -6
-10 -3 -10 4 -14 1 -12 -7 2 -8 2 -11 -1 -6 -2 4 -19 -2 -38 -14 -19 -11 -34
-16 -34 -10 0 6 12 18 28 26 15 9 19 14 10 11 -10 -3 -18 -1 -18 5 0 6 -9 7
-22 3 -21 -6 -21 -5 -9 10 19 23 50 39 81 42 79 9 121 15 175 28 75 18 107 20
85 6z m415 -20 c-16 -4 -34 -8 -40 -10 -5 -1 -23 -2 -40 -1 -55 2 -4 21 55 20
46 -1 50 -2 25 -9z m-305 -19 c0 -5 -8 -11 -17 -14 -10 -2 -26 -8 -35 -12 -10
-4 -18 -3 -18 3 0 6 12 15 28 20 35 13 42 14 42 3z m-170 -130 c0 -7 -34 -27
-65 -39 -5 -2 4 9 20 26 28 27 45 32 45 13z m63 -28 c4 -3 -1 -15 -10 -26 -18
-20 -18 -20 7 -4 29 20 64 23 58 5 -3 -7 -17 -14 -32 -15 -15 -1 -34 -7 -42
-14 -8 -6 -14 -8 -14 -4 0 4 -16 -5 -35 -19 -19 -15 -35 -24 -35 -20 0 3 -7 1
-15 -6 -12 -10 -15 -10 -15 3 0 9 17 28 37 42 21 14 33 25 28 25 -14 1 35 40
49 40 7 0 16 -3 19 -7z m477 -78 c-12 -13 -27 -22 -33 -18 -6 4 -1 14 12 25
34 26 48 22 21 -7z m-956 -70 c-12 -19 -19 -23 -25 -14 -4 8 1 22 14 35 27 29
34 14 11 -21z m426 20 c-12 -13 -26 -22 -30 -20 -4 3 -13 -2 -20 -10 -7 -8
-20 -15 -29 -15 -14 -1 -14 -3 2 -15 11 -7 27 -12 38 -10 10 2 19 0 19 -4 0
-15 -32 -71 -40 -71 -10 0 -3 27 14 50 10 13 9 13 -8 0 -18 -13 -19 -13 -14 1
4 9 1 16 -8 16 -7 0 -11 -4 -9 -8 3 -4 -2 -9 -10 -13 -16 -6 -21 15 -7 28 4 4
7 11 7 14 2 24 18 53 24 44 5 -8 20 -3 46 13 50 31 54 31 25 0z m216 -17 c-4
-35 -17 -58 -31 -58 -8 0 -17 -4 -20 -10 -3 -6 1 -7 10 -4 8 4 21 1 29 -5 7
-6 16 -8 19 -4 4 3 7 2 7 -4 0 -14 -25 -34 -33 -26 -4 3 -7 -3 -7 -15 0 -12
-4 -22 -10 -22 -14 0 -7 34 10 57 14 17 14 17 -4 3 -16 -13 -20 -12 -31 4 -13
17 -14 16 -26 -6 -11 -20 -10 -22 3 -10 13 10 17 10 22 -4 4 -9 4 -19 1 -22
-3 -3 -5 0 -5 8 0 9 -3 10 -13 1 -11 -8 -16 -5 -25 13 -13 28 1 45 32 40 11
-1 20 5 23 16 3 11 11 16 19 13 8 -3 15 1 15 8 1 8 2 19 4 24 1 6 3 13 3 18 4
17 11 5 8 -15z m-410 -44 c-8 -8 -18 -23 -21 -35 -4 -11 -9 -18 -12 -15 -4 3
-12 -2 -19 -12 -9 -11 -13 -13 -14 -4 0 7 5 18 10 25 6 7 20 24 31 40 11 15
25 25 30 21 5 -3 3 -12 -5 -20z m298 -2 c2 -4 1 -14 -4 -22 -5 -8 -5 -21 1
-31 6 -12 4 -19 -7 -23 -13 -5 -15 -2 -11 13 3 11 1 21 -4 23 -5 2 -6 13 -3
26 6 22 19 29 28 14z m-174 -50 c0 -13 -23 -32 -39 -32 -11 0 -10 4 4 20 19
21 35 26 35 12z m-169 -68 c-12 -26 -24 -45 -27 -41 -3 3 4 27 15 53 12 26 24
45 27 41 3 -3 -4 -27 -15 -53z m570 -12 c-9 -18 -41 -38 -41 -27 0 9 43 55 48
51 2 -2 -1 -13 -7 -24z m-344 -14 c25 3 34 1 29 -7 -9 -14 -3 -14 26 0 16 7
31 7 48 -1 24 -10 24 -10 -5 -5 -29 5 -29 5 -10 -11 18 -15 18 -16 2 -10 -10
3 -50 9 -88 12 -38 4 -69 11 -69 16 0 5 5 6 10 3 6 -3 10 0 11 7 0 7 3 8 5 3
2 -6 21 -9 41 -7z m413 -96 c0 -12 -3 -13 -8 -5 -6 9 -13 4 -26 -17 -9 -17
-14 -34 -11 -40 3 -5 2 -18 -4 -27 -9 -16 -10 -16 -16 -2 -6 17 16 81 36 106
14 16 29 8 29 -15z"/>
<path d="M1186 1135 c-11 -8 -16 -15 -10 -15 5 -1 -4 -12 -21 -25 -16 -14 -27
-25 -23 -25 4 0 28 18 53 40 43 37 44 57 1 25z"/>
<path d="M1934 1668 c4 -18 14 -40 23 -48 9 -8 13 -9 9 -2 -4 6 -3 12 3 12 5
0 9 -13 9 -30 -1 -16 -5 -27 -10 -24 -13 8 -9 -10 7 -32 11 -14 14 -15 15 -4
0 13 1 13 11 0 8 -12 9 -10 4 8 -4 12 -8 36 -10 52 -4 27 -2 29 15 20 16 -9
20 -7 20 6 0 13 3 14 15 4 8 -7 15 -8 15 -2 0 12 -28 36 -47 38 -9 2 -12 -3
-9 -12 3 -8 1 -14 -4 -14 -6 0 -10 9 -10 20 0 18 -7 23 -27 18 -5 0 -7 -11 -5
-22 2 -17 1 -18 -7 -6 -6 8 -8 23 -5 33 3 9 0 17 -7 17 -8 0 -9 -10 -5 -32z"/>
<path d="M655 1640 c-22 -11 -36 -19 -31 -20 5 0 3 -7 -4 -15 -15 -18 -7 -19
22 -4 29 15 72 20 221 23 70 2 131 6 135 10 4 4 -35 5 -85 1 -64 -5 -93 -4
-93 3 0 12 -63 5 -92 -10 -12 -5 -18 -5 -18 1 0 7 -9 7 -26 0 -40 -14 -42 -2
-3 15 19 8 30 15 24 15 -5 0 -28 -8 -50 -19z"/>
<path d="M931 1581 c-7 -5 -9 -11 -4 -14 14 -9 54 4 47 14 -7 11 -25 11 -43 0z"/>
<path d="M2705 1498 c2 -10 -1 -21 -6 -24 -5 -3 -9 -11 -8 -17 0 -8 3 -7 6 2
4 10 7 10 13 1 5 -8 9 -3 12 14 3 14 2 23 -3 21 -4 -3 -9 0 -12 7 -2 7 -3 5
-2 -4z"/>
<path d="M1455 1491 c-5 -8 1 -10 19 -5 17 4 26 2 26 -6 0 -7 7 -10 16 -6 9 3
12 2 9 -5 -4 -6 -26 -8 -53 -4 l-47 5 44 -14 c46 -15 125 -11 86 5 -13 5 -14
8 -5 8 8 0 24 -4 35 -9 20 -9 20 -9 0 -10 -11 -1 6 -10 38 -20 56 -18 114 -17
85 1 -18 12 -31 11 -23 -1 8 -12 9 -13 -45 4 -25 8 -37 15 -28 15 9 1 24 4 34
8 10 4 15 2 11 -3 -3 -6 11 -10 36 -9 27 0 41 5 40 13 -2 6 3 12 10 12 7 0 5
5 -5 10 -9 6 -24 7 -32 4 -15 -6 -15 -8 1 -20 23 -17 15 -17 -37 1 -48 17 -72
19 -50 5 22 -14 -5 -13 -32 1 -11 6 -30 12 -42 14 -11 2 -35 6 -52 10 -20 4
-34 3 -39 -4z"/>
<path d="M2120 1455 c6 -8 9 -18 7 -23 -9 -13 26 -30 47 -22 11 3 20 14 22 23
1 10 -2 14 -7 11 -6 -3 -21 1 -34 10 -32 21 -52 22 -35 1z"/>
<path d="M1314 1439 c-3 -5 -10 -6 -16 -3 -6 4 -14 1 -18 -7 -5 -8 -33 -13
-72 -15 -62 -2 -63 -2 -13 5 l50 8 -40 3 c-22 1 -44 1 -50 0 -5 -2 -29 -6 -52
-11 -24 -5 -64 -18 -90 -31 -27 -12 -55 -21 -63 -20 -13 3 -13 2 0 -7 12 -9
13 -11 1 -11 -8 0 -12 -2 -9 -6 3 -3 31 8 61 25 32 17 74 31 99 32 71 5 150 0
144 -9 -8 -14 37 -12 83 4 24 8 51 12 58 10 9 -4 11 -1 7 5 -4 8 1 9 17 4 23
-7 23 -6 4 8 -25 18 -93 29 -101 16z m21 -30 c-27 -10 -57 -16 -65 -12 -10 4
3 11 35 19 74 18 86 16 30 -7z"/>
<path d="M1515 1430 c-15 -6 -7 -9 30 -9 36 -1 46 2 35 9 -18 12 -38 12 -65 0z"/>
<path d="M2019 1414 c-10 -13 -10 -17 2 -25 11 -7 11 -9 -4 -9 -11 0 -15 -5
-11 -11 4 -8 0 -8 -15 0 -11 7 -21 9 -21 5 0 -3 -20 6 -44 20 -48 28 -61 32
-51 16 8 -13 -1 -13 -25 0 -13 7 -27 6 -44 -2 -24 -10 -25 -12 -8 -23 31 -22
59 -27 59 -10 0 8 -9 15 -19 15 -10 0 -18 4 -18 10 0 16 33 -1 61 -32 28 -30
65 -39 55 -13 -3 8 -1 15 4 15 6 0 10 -6 10 -13 0 -8 11 -19 24 -26 19 -11 28
-11 47 0 22 11 23 11 10 -4 -12 -15 -11 -17 8 -17 12 0 19 5 16 10 -7 12 2 12
30 0 18 -7 16 -9 -12 -15 -18 -4 -33 -12 -33 -17 0 -6 7 -7 16 -4 21 8 56 -3
49 -15 -10 -15 12 -10 25 7 8 8 9 14 4 13 -21 -4 -26 2 -14 15 9 12 5 17 -27
25 -38 11 -88 40 -67 41 5 0 19 -6 30 -14 24 -18 51 -2 33 20 -9 11 -8 14 0
14 18 0 -18 34 -39 37 -10 1 -24 -4 -31 -13z"/>
<path d="M1940 1404 c29 -21 60 -26 60 -8 0 6 -10 12 -22 11 -13 0 -32 3 -43
8 -15 6 -14 3 5 -11z"/>
<path d="M2421 1402 c-41 -16 -40 -23 1 -11 18 5 53 8 78 7 l45 -1 -45 -7 -45
-7 41 -1 c27 -1 50 4 63 16 22 17 20 17 -43 17 -35 0 -78 -6 -95 -13z"/>
<path d="M2393 1370 c-30 -12 -30 -22 0 -11 14 6 42 5 70 -2 40 -9 70 -5 56 7
-11 9 -107 14 -126 6z"/>
<path d="M871 1340 c-24 -18 -47 -28 -54 -23 -7 4 -6 -1 2 -11 14 -17 16 -17
28 0 7 10 15 16 17 13 2 -2 -4 -15 -15 -28 -10 -13 -19 -17 -19 -10 0 7 -14 0
-30 -16 -17 -16 -28 -35 -25 -42 4 -13 -4 -23 -55 -64 -16 -14 -19 -19 -7 -15
9 3 17 1 17 -4 0 -6 16 6 35 27 19 20 32 40 29 45 -7 11 23 59 35 55 5 -1 27
15 49 35 22 20 42 34 45 31 3 -2 4 2 3 11 -4 27 -12 27 -55 -4z"/>
<path d="M2377 1335 c-37 -13 -58 -25 -43 -25 4 0 16 5 26 10 13 7 21 7 25 0
3 -5 12 -10 18 -10 7 0 6 4 -3 11 -12 8 -9 9 10 4 14 -3 41 -8 60 -10 30 -4
29 -3 -10 9 -40 11 -42 14 -20 18 l25 5 -25 1 c-14 1 -42 -5 -63 -13z"/>
<path d="M2215 1334 c-5 -1 -22 -5 -36 -8 -14 -3 -26 -12 -26 -21 0 -10 8 -13
26 -9 23 4 22 3 -5 -9 -31 -15 -50 -42 -36 -51 10 -6 34 9 33 20 0 5 7 9 16 9
10 0 19 7 21 16 1 9 17 23 35 33 18 9 23 14 13 11 -11 -3 -22 -2 -25 3 -3 5
-10 8 -16 6z"/>
<path d="M1753 1303 c20 -2 54 -2 75 0 20 2 3 4 -38 4 -41 0 -58 -2 -37 -4z"/>
<path d="M2385 1290 c-36 -18 -37 -19 -10 -15 17 3 24 2 16 -1 -11 -5 -9 -10
9 -19 19 -10 20 -13 6 -18 -10 -4 -15 -3 -11 3 16 25 -15 6 -55 -35 -24 -25
-40 -45 -36 -45 5 0 1 -12 -9 -27 -16 -27 -15 -27 12 3 15 17 40 39 55 48 15
10 25 23 21 29 -4 6 0 8 11 4 10 -4 15 -3 11 3 -3 6 -2 10 4 10 24 0 18 -20
-11 -38 -18 -12 -46 -35 -63 -52 -24 -26 -16 -22 37 16 37 27 67 55 67 62 1 6
6 12 12 12 5 0 8 4 5 9 -4 5 0 12 6 15 7 3 3 3 -9 0 -13 -3 -31 -1 -40 5 -17
10 -16 11 2 9 11 -1 29 0 40 1 17 2 15 5 -10 17 l-30 14 40 -5 c31 -4 35 -3
15 4 -35 12 -40 12 -85 -9z"/>
<path d="M1828 1290 c-26 -3 -51 -9 -55 -13 -4 -5 12 -5 35 -1 29 4 52 2 68
-6 13 -7 27 -10 31 -7 3 4 -1 7 -10 7 -8 0 -17 6 -19 13 -2 8 -17 10 -50 7z"/>
<path d="M1926 1261 c-4 -5 -28 -15 -56 -22 -27 -7 -52 -19 -54 -26 -4 -10 1
-10 24 2 16 8 36 15 44 15 9 0 30 9 48 20 21 13 27 20 16 20 -9 0 -19 -4 -22
-9z"/>
<path d="M1830 1170 c-26 -11 -36 -19 -25 -19 11 0 36 8 55 19 45 24 28 24
-30 0z"/>
<path d="M2771 1158 c-5 -18 -13 -51 -16 -73 -4 -22 -9 -48 -12 -57 -2 -10 0
-18 6 -18 6 0 11 12 11 28 0 15 7 54 14 87 16 66 14 86 -3 33z"/>
<path d="M2795 1142 c-3 -26 -2 -58 4 -72 7 -20 9 -10 9 48 1 39 -1 72 -3 72
-2 0 -6 -21 -10 -48z"/>
<path d="M860 1155 c-7 -9 -19 -14 -26 -11 -7 3 -20 -6 -28 -19 -18 -27 -21
-49 -6 -40 13 8 13 -1 0 -26 -7 -11 -7 -19 -1 -19 5 0 12 15 16 33 4 17 21 47
38 65 17 17 28 32 25 32 -3 0 -11 -7 -18 -15z"/>
<path d="M2353 1125 c-15 -13 -25 -25 -22 -25 3 0 16 9 29 20 13 11 28 20 34
20 6 0 -8 -17 -31 -38 -23 -20 -44 -48 -48 -62 l-6 -25 15 25 c9 14 15 22 16
18 0 -4 18 12 39 35 27 28 36 44 28 49 -18 12 -24 10 -54 -17z"/>
<path d="M2586 1054 c-3 -8 -10 -13 -15 -9 -13 7 -24 -12 -17 -30 4 -12 11 -9
31 11 25 25 32 44 16 44 -5 0 -12 -7 -15 -16z"/>
<path d="M1520 1050 c0 -5 5 -10 12 -10 25 0 -23 -34 -50 -36 -16 -1 -26 -7
-24 -14 1 -7 -2 -18 -8 -25 -8 -10 -8 -15 1 -21 7 -4 9 -3 6 3 -4 6 2 18 13
28 11 10 20 15 20 10 0 -4 7 -2 15 5 11 9 15 9 15 1 0 -6 -11 -16 -25 -21 -14
-5 -25 -14 -25 -20 0 -17 36 6 58 37 31 46 32 48 11 61 -11 7 -19 8 -19 2z"/>
<path d="M1944 1025 c-4 -8 -4 -21 -1 -29 3 -8 1 -17 -6 -19 -7 -2 -8 -8 -4
-13 5 -5 17 2 27 16 23 29 26 48 6 31 -12 -10 -13 -8 -9 8 6 24 -5 29 -13 6z"/>
<path d="M854 982 c-24 -18 -54 -69 -35 -58 19 12 12 -12 -7 -26 -10 -7 -21
-21 -25 -31 -6 -16 -2 -15 22 5 15 13 27 25 25 27 -7 7 17 41 25 36 12 -7 43
43 36 55 -9 14 -17 12 -41 -8z"/>
<path d="M1964 968 c-21 -27 -31 -64 -23 -83 6 -16 8 -13 10 15 2 34 2 34 6 5
l5 -30 13 39 c15 42 7 79 -11 54z"/>
<path d="M1881 902 c-1 -26 3 -41 9 -37 6 3 10 1 10 -6 0 -7 2 -10 5 -7 3 2
-1 24 -9 49 l-14 44 -1 -43z"/>
<path d="M1707 774 c-4 -4 -7 -17 -8 -28 0 -20 -1 -20 -8 -2 -7 18 -8 18 -14
2 -4 -10 -12 -14 -18 -10 -9 5 -10 -1 -6 -23 4 -22 2 -30 -9 -30 -11 0 -13 7
-9 29 10 44 -3 33 -16 -14 -15 -54 -19 -118 -9 -138 7 -11 10 -8 15 13 4 15 9
42 10 60 4 52 5 53 14 38 7 -11 12 -7 20 20 l11 34 -3 -32 c-2 -18 0 -30 5
-27 4 3 8 16 8 30 0 14 5 23 13 22 7 -2 11 6 10 22 -3 24 -2 24 12 6 18 -24
20 -7 2 18 -7 9 -16 14 -20 10z"/>
<path d="M536 758 c5 -7 2 -9 -7 -6 -8 3 -55 0 -105 -7 -49 -8 -98 -13 -109
-11 -11 2 -14 1 -6 -1 12 -4 12 -6 0 -15 -10 -7 -7 -8 11 -4 14 3 52 9 84 13
44 5 57 3 52 -6 -5 -7 -20 -9 -42 -5 -21 4 -34 2 -34 -4 0 -6 30 -14 68 -17
78 -9 97 -16 62 -26 l-25 -7 27 -1 c31 -1 47 17 27 30 -8 5 -30 9 -49 10 -26
1 -20 4 24 10 43 6 70 5 100 -5 44 -15 66 -12 66 10 0 8 -10 14 -24 14 -14 0
-28 5 -31 10 -3 6 -20 10 -36 10 -18 0 -28 4 -24 10 3 6 -3 10 -15 10 -14 0
-19 -4 -14 -12z m34 -29 c-60 -10 -102 -11 -96 -1 2 4 35 8 73 8 63 1 65 1 23
-7z"/>
<path d="M2183 707 c-3 -5 -2 -11 1 -14 3 -4 6 0 6 7 0 9 5 7 15 -6 15 -18 15
-18 8 0 -4 13 -3 17 5 12 7 -4 12 -16 12 -27 0 -10 9 -27 20 -36 11 -10 20
-22 20 -28 0 -15 43 -55 59 -55 8 0 10 -7 6 -22 -6 -17 -4 -20 9 -15 12 5 15
3 10 -5 -5 -8 -1 -9 12 -4 10 4 35 9 54 12 19 2 26 1 15 -2 -11 -3 -37 -12
-57 -20 -21 -7 -38 -10 -38 -6 0 4 -13 13 -30 19 -16 6 -30 7 -30 2 0 -5 7 -9
15 -9 8 0 15 -5 15 -10 0 -17 -54 -2 -71 19 -9 11 -19 18 -22 14 -3 -3 -9 8
-12 23 -13 56 -18 69 -29 77 -7 5 -5 13 9 24 15 12 16 14 3 10 -12 -4 -18 1
-21 21 -2 15 -5 -3 -6 -40 0 -36 -3 -72 -6 -80 -6 -16 84 -79 137 -95 21 -6
47 -9 58 -6 11 3 34 0 51 -6 37 -13 93 5 84 26 -2 7 0 13 5 13 6 0 10 5 10 10
0 6 -7 10 -16 10 -8 0 -12 5 -9 10 4 6 -5 10 -21 10 -34 0 -29 5 14 13 18 4
31 3 28 -2 -3 -5 18 -14 47 -19 28 -6 62 -13 75 -17 13 -5 22 -3 22 3 0 11
-15 16 -122 43 -24 5 -52 13 -63 15 -16 4 -17 3 -5 -5 25 -18 -87 -13 -125 5
-29 14 -50 43 -46 67 1 4 -6 18 -15 30 -12 15 -15 17 -11 5 4 -10 3 -18 -2
-18 -5 0 -11 13 -14 29 -5 23 -11 29 -27 28 -12 -1 -24 -5 -27 -10z m277 -212
c-8 -9 -27 -14 -56 -13 -24 1 -44 3 -44 5 0 5 65 21 89 22 20 1 21 -1 11 -14z"/>
<path d="M995 635 c29 -26 29 -26 5 -20 -14 4 -32 14 -41 21 -8 8 -19 14 -24
14 -16 0 47 -58 76 -70 16 -7 26 -16 24 -20 -13 -21 19 -20 39 1 l22 24 -50
30 c-77 46 -84 49 -51 20z"/>
<path d="M1053 626 c2 -6 18 -16 36 -22 30 -10 32 -12 17 -27 -9 -9 -12 -18
-8 -21 5 -3 19 7 32 21 14 16 19 28 12 31 -6 2 -9 9 -6 16 3 9 -8 13 -41 12
-27 0 -44 -4 -42 -10z"/>
<path d="M1657 593 c-6 -23 -4 -38 8 -57 16 -24 14 -31 -7 -27 -15 2 -8 -13
19 -41 20 -21 23 -28 11 -28 -9 0 -30 17 -48 38 l-31 37 16 -32 c8 -18 24 -37
35 -43 11 -6 18 -16 14 -21 -8 -14 -74 50 -74 72 0 10 -5 21 -12 25 -8 5 -9 2
-5 -10 4 -10 7 -21 7 -26 0 -5 6 -15 13 -22 6 -8 18 -24 25 -37 12 -20 12 -25
0 -33 -10 -8 -9 -9 3 -5 9 3 20 2 25 -2 5 -5 25 -11 44 -14 34 -5 34 -5 8 6
-16 6 -28 14 -28 19 0 11 14 10 26 -2 11 -11 64 8 64 23 0 4 7 7 15 7 19 0 19
14 0 30 -9 7 -26 9 -45 5 -31 -7 -70 14 -70 38 0 6 10 1 23 -11 25 -23 47 -29
47 -12 0 6 11 8 28 4 39 -9 16 11 -29 25 -49 16 -67 38 -71 86 l-3 40 -8 -32z"/>
<path d="M1405 591 c-8 -26 -28 -32 -63 -19 -24 9 -33 9 -45 -3 -13 -14 -10
-17 28 -28 42 -12 44 -12 74 19 17 18 28 36 25 41 -8 13 -12 11 -19 -10z"/>
<path d="M1815 600 c-58 -6 -51 -7 48 -6 65 1 108 4 95 7 -27 8 -48 8 -143 -1z"/>
<path d="M380 591 c0 -5 15 -9 33 -9 70 1 87 -2 87 -17 0 -9 9 -15 23 -14 12
0 16 3 9 6 -6 2 -10 8 -7 13 6 9 -72 30 -114 30 -17 0 -31 -4 -31 -9z"/>
<path d="M1915 582 c35 -16 81 -24 70 -13 -5 5 -28 12 -50 15 -27 4 -33 3 -20
-2z"/>
<path d="M500 529 c-21 -7 -19 -8 13 -4 20 2 37 1 37 -3 0 -15 98 -30 165 -25
39 3 81 0 95 -5 21 -9 17 -11 -32 -11 -32 -1 -58 -4 -58 -8 0 -5 23 -6 51 -4
59 4 122 -6 114 -19 -3 -5 -29 -6 -58 -3 -28 3 -68 0 -87 -5 -29 -9 -23 -10
35 -5 64 5 69 5 56 -10 -11 -14 -11 -18 5 -23 11 -3 36 -12 57 -20 20 -8 50
-14 65 -13 18 1 7 6 -33 17 -74 20 -41 29 43 11 42 -9 52 -14 37 -19 -13 -5 0
-9 40 -13 32 -3 66 -2 75 3 11 6 24 4 39 -6 28 -20 42 -9 15 11 -22 17 -39 18
-62 6 -12 -6 -41 -1 -91 15 -40 13 -89 24 -107 24 -38 0 -42 7 -16 26 15 11
11 15 -38 38 -46 22 -69 26 -140 26 -47 -1 -101 4 -120 9 -67 19 -75 19 -100
10z"/>
<path d="M1238 520 c12 -11 28 -20 37 -20 8 0 15 -4 15 -10 0 -5 21 -10 48
-10 34 0 43 -3 32 -10 -12 -8 -9 -10 12 -10 15 0 30 -4 33 -10 3 -5 13 -10 21
-10 13 0 13 2 2 13 -26 23 -58 37 -87 37 -33 0 -78 17 -99 37 -7 7 -18 13 -25
13 -6 0 -1 -9 11 -20z"/>
<path d="M1100 495 c0 -8 27 -35 35 -35 3 0 3 5 -1 12 -7 11 0 11 82 -7 20 -4
24 -3 14 3 -8 5 -33 13 -55 16 -22 4 -48 9 -57 12 -10 3 -18 2 -18 -1z"/>
<path d="M2483 429 c20 -12 121 -19 109 -8 -4 3 -34 9 -67 12 -43 4 -55 3 -42
-4z"/>
<path d="M265 411 c-13 -6 5 -8 50 -8 47 0 62 2 45 7 -33 10 -70 11 -95 1z"/>
<path d="M1395 401 c33 -4 71 -11 85 -16 19 -5 22 -4 14 4 -6 7 -44 14 -85 16
-73 4 -73 4 -14 -4z"/>
<path d="M428 393 c51 -7 37 -23 -20 -24 -43 -2 -37 -3 30 -9 113 -10 127 -27
20 -24 -46 1 -67 0 -48 -2 19 -2 76 -9 125 -16 82 -12 87 -13 50 -19 -28 -5
-14 -7 50 -7 50 0 100 -4 113 -7 16 -5 22 -3 22 8 0 12 -17 16 -77 19 -54 2
-92 10 -123 25 -25 12 -57 25 -72 28 -16 4 -26 11 -23 15 7 11 -21 20 -53 18
-23 -1 -22 -2 6 -5z"/>
<path d="M1779 349 c29 -12 68 -20 109 -21 35 0 69 -6 75 -13 7 -6 24 -14 37
-18 14 -3 44 -13 68 -21 23 -9 54 -13 67 -10 18 4 25 2 25 -8 0 -20 40 -42 53
-29 8 8 8 11 0 11 -6 0 -18 6 -25 13 -18 19 -128 68 -128 58 0 -5 10 -11 22
-14 12 -4 19 -9 15 -13 -9 -9 -70 16 -80 33 -5 7 -12 11 -17 8 -5 -3 -29 1
-52 8 -24 8 -57 13 -74 10 -17 -3 -48 2 -68 11 -56 23 -79 19 -27 -5z"/>
<path d="M2344 335 c11 -9 38 -14 60 -13 l41 1 -40 4 c-22 3 -44 9 -49 14 -6
5 -15 9 -20 9 -6 0 -2 -7 8 -15z"/>
<path d="M350 300 c30 -4 84 -17 119 -29 35 -11 83 -21 105 -21 23 0 77 -12
121 -25 44 -14 123 -30 175 -35 52 -5 113 -12 135 -15 39 -6 40 -6 15 9 -14 9
-38 14 -55 11 -24 -4 -26 -3 -10 4 28 13 102 13 110 1 4 -7 -3 -9 -22 -4 -26
6 -27 6 -8 -9 18 -14 17 -16 -33 -43 -51 -29 -65 -44 -38 -44 7 0 25 11 40 25
15 14 31 25 35 25 5 0 21 12 36 28 16 15 25 20 20 12 -4 -8 4 -4 18 9 15 14
27 26 27 27 0 2 -59 -1 -205 -10 -62 -5 -85 -3 -75 4 11 7 4 10 -30 10 -30 0
-40 3 -31 9 9 6 -12 9 -56 9 -39 0 -86 5 -104 10 -59 18 -159 33 -171 26 -6
-4 -8 -3 -5 3 4 6 -17 13 -55 17 -82 8 -128 5 -58 -4z"/>
<path d="M960 270 c13 -8 12 -11 -4 -23 -15 -11 -16 -16 -6 -22 9 -5 11 -4 6
3 -7 12 2 14 52 14 20 0 20 1 2 5 -11 2 -20 11 -20 19 0 8 -10 14 -22 14 -19
0 -20 -2 -8 -10z"/>
<path d="M2050 242 c47 -17 75 -32 75 -42 0 -8 10 -19 22 -26 13 -6 20 -14 16
-17 -3 -4 17 -7 45 -7 28 0 62 -4 76 -10 16 -6 26 -6 26 0 0 5 -17 12 -37 15
-81 12 -144 36 -141 52 2 12 -14 23 -62 39 -36 13 -72 23 -80 23 -8 -1 19 -13
60 -27z"/>
<path d="M2330 239 c19 -6 41 -15 48 -21 8 -7 12 -7 12 0 0 15 -9 19 -55 26
l-40 6 35 -11z"/>
<path d="M1311 225 c-19 -7 -37 -20 -41 -29 -3 -10 -9 -17 -13 -17 -10 1 -44
-33 -40 -41 8 -15 54 19 60 45 4 20 11 27 29 27 12 0 26 5 30 11 4 7 21 9 43
5 20 -3 41 -2 48 2 21 13 -80 10 -116 -3z"/>
<path d="M1944 228 c-3 -4 19 -8 48 -7 57 1 55 5 -5 11 -21 2 -40 0 -43 -4z"/>
<path d="M2230 230 c0 -5 12 -10 28 -10 15 0 41 -9 58 -19 28 -17 130 -51 151
-51 16 1 -42 29 -60 30 -10 0 -42 11 -70 24 -64 29 -107 40 -107 26z"/>
<path d="M1375 198 c2 -13 -4 -30 -13 -38 -14 -13 -15 -12 -8 5 6 16 5 18 -5
8 -25 -25 -32 -13 -8 13 23 25 23 26 2 15 -12 -6 -24 -19 -28 -28 -3 -10 -17
-27 -32 -37 -14 -11 -23 -14 -19 -7 4 6 -7 3 -26 -9 -35 -21 -68 -26 -68 -11
0 5 6 12 13 14 7 4 8 6 1 6 -14 1 -48 -48 -40 -57 3 -3 6 0 6 6 0 7 5 12 10
12 15 0 12 -26 -5 -40 -8 -7 -12 -16 -9 -21 6 -11 65 18 81 40 6 9 31 27 56
40 l45 25 154 -17 c84 -9 185 -23 223 -32 39 -9 86 -16 105 -16 19 -1 49 -5
65 -9 43 -12 205 -21 205 -11 0 4 -6 8 -12 9 -67 4 -129 15 -145 25 -8 5 -13
3 -13 -3 0 -7 -8 -9 -22 -5 -34 11 -43 22 -29 39 16 19 -3 31 -41 27 -15 -1
-36 3 -48 9 -30 16 -59 20 -65 10 -7 -12 33 -33 65 -36 37 -2 40 -3 40 -13 0
-6 -9 -9 -20 -8 -11 1 -20 6 -20 12 0 5 -4 4 -9 -4 -8 -12 -18 -13 -65 -2 -31
7 -58 17 -62 22 -3 6 -19 7 -35 4 -35 -8 -62 5 -33 16 17 7 17 8 -3 8 -13 1
-23 -4 -23 -10 0 -5 -5 -7 -10 -4 -6 4 -8 11 -5 16 4 5 -8 9 -24 9 -33 0 -42
-14 -15 -24 9 -4 13 -2 8 5 -4 7 -1 10 6 7 8 -2 16 -10 18 -16 5 -15 -34 -16
-43 -2 -4 6 -10 8 -15 5 -5 -3 -12 0 -16 6 -4 8 -3 9 4 5 7 -4 12 -2 12 4 0 7
-8 9 -20 5 -14 -5 -20 -2 -20 10 0 12 -5 15 -22 9 -19 -6 -21 -5 -11 8 7 8 10
18 6 21 -13 13 -20 7 -18 -15z"/>
</g>
</svg>
